<svg id="my-svg" width="146.375" xmlns="http://www.w3.org/2000/svg" xmlns:xlink="http://www.w3.org/1999/xlink" class="flowchart" style="background-color: white;" viewBox="0 0 146.375 248" role="graphics-document document" aria-roledescription="flowchart-v2" height="248"><style>#my-svg{font-family:"trebuchet ms",verdana,arial,sans-serif;font-size:16px;fill:#333;}@keyframes edge-animation-frame{from{stroke-dashoffset:0;}}@keyframes dash{to{stroke-dashoffset:0;}}#my-svg .edge-animation-slow{stroke-dasharray:9,5!important;stroke-dashoffset:900;animation:dash 50s linear infinite;stroke-linecap:round;}#my-svg .edge-animation-fast{stroke-dasharray:9,5!important;stroke-dashoffset:900;animation:dash 20s linear infinite;stroke-linecap:round;}#my-svg .error-icon{fill:#552222;}#my-svg .error-text{fill:#552222;stroke:#552222;}#my-svg .edge-thickness-normal{stroke-width:1px;}#my-svg .edge-thickness-thick{stroke-width:3.5px;}#my-svg .edge-pattern-solid{stroke-dasharray:0;}#my-svg .edge-thickness-invisible{stroke-width:0;fill:none;}#my-svg .edge-pattern-dashed{stroke-dasharray:3;}#my-svg .edge-pattern-dotted{stroke-dasharray:2;}#my-svg .marker{fill:#333333;stroke:#333333;}#my-svg .marker.cross{stroke:#333333;}#my-svg svg{font-family:"trebuchet ms",verdana,arial,sans-serif;font-size:16px;}#my-svg p{margin:0;}#my-svg .label{font-family:"trebuchet ms",verdana,arial,sans-serif;color:#333;}#my-svg .cluster-label text{fill:#333;}#my-svg .cluster-label span{color:#333;}#my-svg .cluster-label span p{background-color:transparent;}#my-svg .label text,#my-svg span{fill:#333;color:#333;}#my-svg .node rect,#my-svg .node circle,#my-svg .node ellipse,#my-svg .node polygon,#my-svg .node path{fill:#ECECFF;stroke:#9370DB;stroke-width:1px;}#my-svg .rough-node .label text,#my-svg .node .label text,#my-svg .image-shape .label,#my-svg .icon-shape .label{text-anchor:middle;}#my-svg .node .katex path{fill:#000;stroke:#000;stroke-width:1px;}#my-svg .rough-node .label,#my-svg .node .label,#my-svg .image-shape .label,#my-svg .icon-shape .label{text-align:center;}#my-svg .node.clickable{cursor:pointer;}#my-svg .root .anchor path{fill:#333333!important;stroke-width:0;stroke:#333333;}#my-svg .arrowheadPath{fill:#333333;}#my-svg .edgePath .path{stroke:#333333;stroke-width:1px;}#my-svg .flowchart-link{stroke:#333333;fill:none;}#my-svg .edgeLabel{background-color:rgba(232,232,232, 0.8);text-align:center;}#my-svg .edgeLabel p{background-color:rgba(232,232,232, 0.8);}#my-svg .edgeLabel rect{opacity:0.5;background-color:rgba(232,232,232, 0.8);fill:rgba(232,232,232, 0.8);}#my-svg .labelBkg{background-color:rgba(232, 232, 232, 0.5);}#my-svg .cluster rect{fill:#ffffde;stroke:#aaaa33;stroke-width:1px;}#my-svg .cluster text{fill:#333;}#my-svg .cluster span{color:#333;}#my-svg div.mermaidTooltip{position:absolute;text-align:center;max-width:200px;padding:2px;font-family:"trebuchet ms",verdana,arial,sans-serif;font-size:12px;background:hsl(80, 100%, 96.2745098039%);border:1px solid #aaaa33;border-radius:2px;pointer-events:none;z-index:100;}#my-svg .flowchartTitleText{text-anchor:middle;font-size:18px;fill:#333;}#my-svg rect.text{fill:none;stroke-width:0;}#my-svg .icon-shape,#my-svg .image-shape{background-color:rgba(232,232,232, 0.8);text-align:center;}#my-svg .icon-shape p,#my-svg .image-shape p{background-color:rgba(232,232,232, 0.8);padding:2px;}#my-svg .icon-shape .label rect,#my-svg .image-shape .label rect{opacity:0.5;background-color:rgba(232,232,232, 0.8);fill:rgba(232,232,232, 0.8);}#my-svg .label-icon{display:inline-block;height:1em;overflow:visible;vertical-align:-0.125em;}#my-svg .node .label-icon path{fill:currentColor;stroke:revert;stroke-width:revert;}#my-svg .node .neo-node{stroke:#9370DB;}#my-svg [data-look="neo"].node rect,#my-svg [data-look="neo"].cluster rect,#my-svg [data-look="neo"].node polygon{stroke:#9370DB;filter:drop-shadow(1px 2px 2px rgba(185, 185, 185, 1));}#my-svg [data-look="neo"].node path{stroke:#9370DB;stroke-width:1px;}#my-svg [data-look="neo"].node .outer-path{filter:drop-shadow(1px 2px 2px rgba(185, 185, 185, 1));}#my-svg [data-look="neo"].node .neo-line path{stroke:#9370DB;filter:none;}#my-svg [data-look="neo"].node circle{stroke:#9370DB;filter:drop-shadow(1px 2px 2px rgba(185, 185, 185, 1));}#my-svg [data-look="neo"].node circle .state-start{fill:#000000;}#my-svg [data-look="neo"].icon-shape .icon{fill:#9370DB;filter:drop-shadow(1px 2px 2px rgba(185, 185, 185, 1));}#my-svg [data-look="neo"].icon-shape .icon-neo path{stroke:#9370DB;filter:drop-shadow(1px 2px 2px rgba(185, 185, 185, 1));}#my-svg :root{--mermaid-font-family:"trebuchet ms",verdana,arial,sans-serif;}#my-svg .entryPoint&gt;*{fill:#102A43!important;stroke:#102A43!important;stroke-width:2px!important;color:#102A43!important;}#my-svg .entryPoint span{fill:#102A43!important;stroke:#102A43!important;stroke-width:2px!important;color:#102A43!important;}#my-svg .entryPoint tspan{fill:#102A43!important;}#my-svg .geometryNode&gt;*{fill:#EDF2F7!important;stroke:#2B6CB0!important;stroke-width:2.5px!important;color:#1A365D!important;}#my-svg .geometryNode span{fill:#EDF2F7!important;stroke:#2B6CB0!important;stroke-width:2.5px!important;color:#1A365D!important;}#my-svg .geometryNode tspan{fill:#1A365D!important;}#my-svg .attributeNode&gt;*{fill:#FDECF3!important;stroke:#B83280!important;stroke-width:2.5px!important;color:#702459!important;}#my-svg .attributeNode span{fill:#FDECF3!important;stroke:#B83280!important;stroke-width:2.5px!important;color:#702459!important;}#my-svg .attributeNode tspan{fill:#702459!important;}</style><g><marker id="my-svg_flowchart-v2-pointEnd" class="marker flowchart-v2" viewBox="0 0 10 10" refX="5" refY="5" markerUnits="userSpaceOnUse" markerWidth="8" markerHeight="8" orient="auto"><path d="M 0 0 L 10 5 L 0 10 z" class="arrowMarkerPath" style="stroke-width: 1; stroke-dasharray: 1, 0;"/></marker><marker id="my-svg_flowchart-v2-pointStart" class="marker flowchart-v2" viewBox="0 0 10 10" refX="4.5" refY="5" markerUnits="userSpaceOnUse" markerWidth="8" markerHeight="8" orient="auto"><path d="M 0 5 L 10 10 L 10 0 z" class="arrowMarkerPath" style="stroke-width: 1; stroke-dasharray: 1, 0;"/></marker><marker id="my-svg_flowchart-v2-pointEnd-margin" class="marker flowchart-v2" viewBox="0 0 11.5 14" refX="11.5" refY="7" markerUnits="userSpaceOnUse" markerWidth="10.5" markerHeight="14" orient="auto"><path d="M 0 0 L 11.5 7 L 0 14 z" class="arrowMarkerPath" style="stroke-width: 0; stroke-dasharray: 1, 0;"/></marker><marker id="my-svg_flowchart-v2-pointStart-margin" class="marker flowchart-v2" viewBox="0 0 11.5 14" refX="1" refY="7" markerUnits="userSpaceOnUse" markerWidth="11.5" markerHeight="14" orient="auto"><polygon points="0,7 11.5,14 11.5,0" class="arrowMarkerPath" style="stroke-width: 0; stroke-dasharray: 1, 0;"/></marker><marker id="my-svg_flowchart-v2-circleEnd" class="marker flowchart-v2" viewBox="0 0 10 10" refX="11" refY="5" markerUnits="userSpaceOnUse" markerWidth="11" markerHeight="11" orient="auto"><circle cx="5" cy="5" r="5" class="arrowMarkerPath" style="stroke-width: 1; stroke-dasharray: 1, 0;"/></marker><marker id="my-svg_flowchart-v2-circleStart" class="marker flowchart-v2" viewBox="0 0 10 10" refX="-1" refY="5" markerUnits="userSpaceOnUse" markerWidth="11" markerHeight="11" orient="auto"><circle cx="5" cy="5" r="5" class="arrowMarkerPath" style="stroke-width: 1; stroke-dasharray: 1, 0;"/></marker><marker id="my-svg_flowchart-v2-circleEnd-margin" class="marker flowchart-v2" viewBox="0 0 10 10" refY="5" refX="12.25" markerUnits="userSpaceOnUse" markerWidth="14" markerHeight="14" orient="auto"><circle cx="5" cy="5" r="5" class="arrowMarkerPath" style="stroke-width: 0; stroke-dasharray: 1, 0;"/></marker><marker id="my-svg_flowchart-v2-circleStart-margin" class="marker flowchart-v2" viewBox="0 0 10 10" refX="-2" refY="5" markerUnits="userSpaceOnUse" markerWidth="14" markerHeight="14" orient="auto"><circle cx="5" cy="5" r="5" class="arrowMarkerPath" style="stroke-width: 0; stroke-dasharray: 1, 0;"/></marker><marker id="my-svg_flowchart-v2-crossEnd" class="marker cross flowchart-v2" viewBox="0 0 11 11" refX="12" refY="5.2" markerUnits="userSpaceOnUse" markerWidth="11" markerHeight="11" orient="auto"><path d="M 1,1 l 9,9 M 10,1 l -9,9" class="arrowMarkerPath" style="stroke-width: 2; stroke-dasharray: 1, 0;"/></marker><marker id="my-svg_flowchart-v2-crossStart" class="marker cross flowchart-v2" viewBox="0 0 11 11" refX="-1" refY="5.2" markerUnits="userSpaceOnUse" markerWidth="11" markerHeight="11" orient="auto"><path d="M 1,1 l 9,9 M 10,1 l -9,9" class="arrowMarkerPath" style="stroke-width: 2; stroke-dasharray: 1, 0;"/></marker><marker id="my-svg_flowchart-v2-crossEnd-margin" class="marker cross flowchart-v2" viewBox="0 0 15 15" refX="17.7" refY="7.5" markerUnits="userSpaceOnUse" markerWidth="12" markerHeight="12" orient="auto"><path d="M 1,1 L 14,14 M 1,14 L 14,1" class="arrowMarkerPath" style="stroke-width: 2.5;"/></marker><marker id="my-svg_flowchart-v2-crossStart-margin" class="marker cross flowchart-v2" viewBox="0 0 15 15" refX="-3.5" refY="7.5" markerUnits="userSpaceOnUse" markerWidth="12" markerHeight="12" orient="auto"><path d="M 1,1 L 14,14 M 1,14 L 14,1" class="arrowMarkerPath" style="stroke-width: 2.5; stroke-dasharray: 1, 0;"/></marker><g class="root"><g class="clusters"/><g class="edgePaths"><path d="M73.188,23L73.188,27.167C73.188,31.333,73.188,39.667,73.188,47.333C73.188,55,73.188,62,73.188,65.5L73.188,69" id="my-svg-L_Entry_Root_0" class="edge-thickness-normal edge-pattern-solid edge-thickness-normal edge-pattern-solid flowchart-link" style=";" data-edge="true" data-et="edge" data-id="L_Entry_Root_0" data-points="W3sieCI6NzMuMTg3NSwieSI6MjN9LHsieCI6NzMuMTg3NSwieSI6NDh9LHsieCI6NzMuMTg3NSwieSI6NzN9XQ==" data-look="classic" marker-end="url(#my-svg_flowchart-v2-pointEnd)"/><path d="M73.188,127L73.188,131.167C73.188,135.333,73.188,143.667,73.258,151.417C73.328,159.167,73.469,166.334,73.539,169.917L73.609,173.501" id="my-svg-L_Root_Attr_0" class="edge-thickness-normal edge-pattern-dotted edge-thickness-normal edge-pattern-solid flowchart-link" style=";" data-edge="true" data-et="edge" data-id="L_Root_Attr_0" data-points="W3sieCI6NzMuMTg3NSwieSI6MTI3fSx7IngiOjczLjE4NzUsInkiOjE1Mn0seyJ4Ijo3My42ODc1LCJ5IjoxNzcuNX1d" data-look="classic" marker-end="url(#my-svg_flowchart-v2-pointEnd)"/></g><g class="edgeLabels"><g class="edgeLabel"><g class="label" data-id="L_Entry_Root_0" transform="translate(0, 0)"><foreignObject width="0" height="0"><div xmlns="http://www.w3.org/1999/xhtml" class="labelBkg" style="display: table-cell; white-space: nowrap; line-height: 1.5; max-width: 200px; text-align: center;"><span class="edgeLabel"></span></div></foreignObject></g></g><g class="edgeLabel"><g class="label" data-id="L_Root_Attr_0" transform="translate(0, 0)"><foreignObject width="0" height="0"><div xmlns="http://www.w3.org/1999/xhtml" class="labelBkg" style="display: table-cell; white-space: nowrap; line-height: 1.5; max-width: 200px; text-align: center;"><span class="edgeLabel"></span></div></foreignObject></g></g></g><g class="nodes"><g class="node default entryPoint" id="my-svg-flowchart-Entry-0" data-look="classic" transform="translate(73.1875, 15.5)"><circle class="basic label-container" style="fill:#102A43 !important;stroke:#102A43 !important;stroke-width:2px !important" r="7.5" cx="0" cy="0"/><g class="label" style="color:#102A43 !important" transform="translate(0, 0)"><rect/><foreignObject width="0" height="0"><div style="color: rgb(16, 42, 67) !important; display: table-cell; white-space: nowrap; line-height: 1.5; max-width: 200px; text-align: center;" xmlns="http://www.w3.org/1999/xhtml"><span style="color:#102A43 !important" class="nodeLabel"></span></div></foreignObject></g></g><g class="node default geometryNode" id="my-svg-flowchart-Root-1" data-look="classic" transform="translate(73.1875, 100)"><rect class="basic label-container" style="fill:#EDF2F7 !important;stroke:#2B6CB0 !important;stroke-width:4px !important" x="-65.1875" y="-27" width="130.375" height="54"/><g class="label" style="color:#1A365D !important" transform="translate(-35.1875, -12)"><rect/><foreignObject width="70.375" height="24"><div style="color: rgb(26, 54, 93) !important; display: table-cell; white-space: nowrap; line-height: 1.5; max-width: 200px; text-align: center;" xmlns="http://www.w3.org/1999/xhtml"><span style="color:#1A365D !important" class="nodeLabel"><p>RectPrism</p></span></div></foreignObject></g></g><g class="node default attributeNode" id="my-svg-flowchart-Attr-2" data-look="classic" transform="translate(73.1875, 208.5)"><g class="basic label-container outer-path"><path d="M-18.125 -31.5 C-3.7064942038343354 -31.5, 10.71201159233133 -31.5, 18.125 -31.5 C18.125 -31.5, 18.125 -31.5, 18.124999999999996 -31.5 C18.850390491349977 -31.476738138829344, 19.57578098269996 -31.453476277658687, 20.143211929392454 -31.435279871635593 C20.77895205394594 -31.37395078640928, 21.414692178499426 -31.31262170118297, 22.153130593061935 -31.241385435432253 C22.94163938588295 -31.113905448785967, 23.730148178703967 -30.98642546213968, 24.146496804093225 -30.91911344521856 C24.728056031953983 -30.786376346487966, 25.30961525981474 -30.653639247757376, 26.115119393149477 -30.469788185729428 C26.583400259365728 -30.33080488269287, 27.05168112558198 -30.191821579656313, 28.05090886774405 -29.895256030836062 C28.442046705591185 -29.75131369086978, 28.833184543438318 -29.607371350903495, 29.945910653700285 -29.197877856399685 C30.61972844886085 -28.899598706576818, 31.29354624402142 -28.60131955675395, 31.792337782203077 -28.380519338926202 C32.21338925066803 -28.160857057524375, 32.63444071913298 -27.941194776122547, 33.582602888124036 -27.44653917988677 C34.20242255072513 -27.07080085795334, 34.82224221332622 -26.695062536019915, 35.309349388132276 -26.399775304092984 C35.871556797319506 -26.007603753010464, 36.43376420650674 -25.61543220192794, 36.9654817104733 -25.244529088840633 C37.50953169054607 -24.810663707510592, 38.05358167061885 -24.376798326180555, 38.54419445219533 -23.985547688627737 C39.02775874038399 -23.54638739650475, 39.511323028572654 -23.10722710438176, 40.03900034400982 -22.62800452807842 C40.43819190307135 -22.215806469110873, 40.837383462132884 -21.803608410143326, 41.443756907872434 -21.177478043231485 C41.90089896480637 -20.640492971036945, 42.35804102174032 -20.10350789884241, 42.75269169774294 -19.63992875855011 C43.07356658554939 -19.2099856411931, 43.394441473355855 -18.780042523836094, 43.9604260198041 -18.02167479384835 C44.243399477651316 -17.586951573582134, 44.526372935498536 -17.152228353315916, 45.0619970346684 -16.329365901781543 C45.424572921878074 -15.68557569925098, 45.787148809087746 -15.041785496720417, 46.05287815074951 -14.56995614258631 C46.28833059763978 -14.08103409874335, 46.52378304453005 -13.59211205490039, 46.92899762499809 -12.750675308355413 C47.22292198481633 -12.024676456963455, 47.516846344634565 -11.298677605571495, 47.68675529456745 -10.878999214271206 C47.8764842368321 -10.307565869371812, 48.066213179096756 -9.73613252447242, 48.32303737065481 -8.962618978877531 C48.49148192519688 -8.320266888076876, 48.65992647973895 -7.6779147972762205, 48.835229233727446 -7.009409419623907 C48.96691959592299 -6.333207242517719, 49.09860995811852 -5.65700506541153, 49.22122617755518 -5.027396693551458 C49.28849061052599 -4.505707034294513, 49.355755043496806 -3.984017375037569, 49.479442057899746 -3.024725316091981 C49.51145037313133 -2.526169969712995, 49.54345868836292 -2.0276146233340087, 49.60881581032167 -1.0096246935071378 C49.60881581032167 -0.4970159862192812, 49.60881581032167 0.015592721068575344, 49.60881581032167 1.00962469350713 C49.561073639542094 1.7532475401857013, 49.513331468762516 2.4968703868642725, 49.479442057899746 3.02472531609196 C49.424509935366565 3.4507680108847634, 49.369577812833384 3.8768107056775674, 49.22122617755518 5.027396693551435 C49.12683169763068 5.51209239768338, 49.03243721770617 5.996788101815326, 48.835229233727446 7.0094094196239 C48.6892698301312 7.566015884742061, 48.54331042653496 8.122622349860222, 48.323037370654816 8.96261897887751 C48.16889218061735 9.426879731569604, 48.01474699057988 9.891140484261701, 47.686755294567455 10.878999214271184 C47.44296236606085 11.481172461098133, 47.19916943755423 12.083345707925082, 46.92899762499809 12.750675308355405 C46.58394905858174 13.46717603937558, 46.23890049216538 14.183676770395754, 46.05287815074951 14.569956142586303 C45.79081968302798 15.035267488323226, 45.52876121530645 15.50057883406015, 45.06199703466841 16.329365901781536 C44.825173727514866 16.69319009753162, 44.58835042036132 17.057014293281703, 43.96042601980412 18.021674793848334 C43.523053418903004 18.60771423359219, 43.08568081800188 19.193753673336047, 42.75269169774295 19.639928758550102 C42.254989804302284 20.22455772262551, 41.75728791086162 20.809186686700915, 41.44375690787245 21.177478043231467 C41.068610846883196 21.56484715126728, 40.69346478589395 21.95221625930309, 40.03900034400983 22.628004528078414 C39.69025003890333 22.944730327748715, 39.34149973379682 23.261456127419013, 38.544194452195356 23.985547688627715 C38.03400764753373 24.39240808870431, 37.5238208428721 24.799268488780903, 36.96548171047331 25.24452908884063 C36.42897623819429 25.6187720813549, 35.89247076591526 25.993015073869174, 35.3093493881323 26.399775304092973 C34.73580268232085 26.747462687690437, 34.162255976509414 27.0951500712879, 33.58260288812404 27.446539179886766 C33.03841658519958 27.730440825554496, 32.49423028227511 28.01434247122223, 31.792337782203084 28.3805193389262 C31.246159912755292 28.62229607993989, 30.699982043307504 28.86407282095358, 29.945910653700295 29.197877856399682 C29.322689377838074 29.4272290469113, 28.69946810197585 29.65658023742292, 28.05090886774407 29.895256030836055 C27.619809158675835 30.023204161598958, 27.1887094496076 30.15115229236186, 26.115119393149513 30.46978818572942 C25.69834583870143 30.564914029830582, 25.28157228425335 30.660039873931744, 24.146496804093236 30.919113445218557 C23.615998072532676 31.00488036605816, 23.085499340972117 31.090647286897767, 22.153130593061956 31.24138543543225 C21.645626341761822 31.290343760192012, 21.138122090461692 31.339302084951775, 20.143211929392454 31.435279871635593 C19.645733863519393 31.45123302492583, 19.148255797646335 31.467186178216068, 18.125000000000007 31.5 C18.125000000000004 31.5, 18.125000000000004 31.5, 18.125 31.5 C5.033569614809217 31.5, -8.057860770381566 31.5, -18.124999999999993 31.5 C-18.53292234013939 31.486918724524397, -18.94084468027879 31.473837449048794, -20.143211929392443 31.435279871635593 C-20.879813265069785 31.364220826675517, -21.616414600747127 31.29316178171544, -22.153130593061945 31.24138543543225 C-22.63237176349619 31.163905439567223, -23.111612933930434 31.0864254437022, -24.146496804093225 30.919113445218557 C-24.924831237763183 30.741463689840238, -25.70316567143314 30.563813934461916, -26.115119393149474 30.469788185729428 C-26.745790837398946 30.28260821153815, -27.376462281648415 30.095428237346873, -28.050908867744035 29.89525603083607 C-28.605360179943837 29.691212822654798, -29.159811492143636 29.487169614473526, -29.945910653700288 29.197877856399685 C-30.575727022362514 28.919076832831692, -31.205543391024737 28.640275809263702, -31.792337782203077 28.380519338926206 C-32.4080568476663 28.059299096860926, -33.023775913129526 27.738078854795642, -33.58260288812403 27.446539179886773 C-34.10427977659042 27.130295584384765, -34.6259566650568 26.814051988882756, -35.30934938813226 26.399775304092994 C-35.81571266108543 26.046558204993662, -36.32207593403859 25.693341105894334, -36.9654817104733 25.244529088840636 C-37.381301963483686 24.912923502506505, -37.797122216494074 24.58131791617237, -38.54419445219533 23.98554768862774 C-38.85164375659062 23.706330365038763, -39.15909306098592 23.427113041449786, -40.03900034400981 22.628004528078435 C-40.51040886951867 22.141236522130807, -40.98181739502753 21.65446851618318, -41.44375690787244 21.177478043231478 C-41.95511255186511 20.57681060683726, -42.466468195857786 19.97614317044304, -42.75269169774293 19.639928758550113 C-43.01429954620157 19.28939807458082, -43.275907394660216 18.938867390611527, -43.9604260198041 18.021674793848355 C-44.3377781946283 17.441960520071458, -44.715130369452496 16.862246246294564, -45.061997034668394 16.329365901781557 C-45.40572770969482 15.719037281767001, -45.74945838472125 15.108708661752445, -46.0528781507495 14.569956142586314 C-46.32367367618915 14.007643439914835, -46.5944692016288 13.445330737243356, -46.92899762499809 12.750675308355417 C-47.175799847095405 12.141069048178696, -47.42260206919271 11.531462788001978, -47.68675529456745 10.878999214271209 C-47.87917234086007 10.299469728330786, -48.07158938715269 9.719940242390361, -48.32303737065481 8.962618978877522 C-48.47852606705277 8.369673190284805, -48.63401476345072 7.7767274016920895, -48.83522923372744 7.009409419623911 C-48.97502633756227 6.291580837560439, -49.11482344139709 5.5737522554969665, -49.22122617755518 5.027396693551461 C-49.28550023752682 4.528899776760191, -49.349774297498456 4.030402859968922, -49.479442057899746 3.024725316091999 C-49.50746120718152 2.5883044493781098, -49.535480356463296 2.15188358266422, -49.60881581032167 1.0096246935071416 C-49.60881581032167 0.5682592954856686, -49.60881581032167 0.12689389746419555, -49.60881581032167 -1.0096246935071262 C-49.57581684064148 -1.5236102825649902, -49.542817870961294 -2.037595871622854, -49.479442057899746 -3.024725316091956 C-49.410400338616085 -3.560199257026463, -49.341358619332425 -4.09567319796097, -49.22122617755518 -5.027396693551446 C-49.11372061220923 -5.579415050293627, -49.006215046863275 -6.131433407035808, -48.835229233727446 -7.009409419623896 C-48.671817550019746 -7.632568992673083, -48.508405866312046 -8.25572856572227, -48.323037370654816 -8.962618978877506 C-48.103430795958694 -9.624038992306218, -47.88382422126258 -10.285459005734932, -47.68675529456746 -10.878999214271168 C-47.45016799850693 -11.463374409644878, -47.21358070244639 -12.047749605018588, -46.92899762499809 -12.750675308355401 C-46.67749626939729 -13.272923254527417, -46.42599491379649 -13.795171200699432, -46.05287815074951 -14.5699561425863 C-45.74169372269814 -15.122495605431766, -45.43050929464677 -15.675035068277234, -45.0619970346684 -16.329365901781546 C-44.64982438150422 -16.962573780896314, -44.237651728340026 -17.595781660011077, -43.96042601980411 -18.021674793848344 C-43.71510339194942 -18.35038476582246, -43.46978076409473 -18.67909473779658, -42.75269169774295 -19.639928758550102 C-42.4457113707005 -20.000525318369608, -42.13873104365805 -20.361121878189113, -41.443756907872455 -21.177478043231467 C-40.97318112358084 -21.663386175502968, -40.50260533928921 -22.149294307774465, -40.039000344009835 -22.628004528078403 C-39.467325473487435 -23.147184519798635, -38.89565060296504 -23.666364511518864, -38.544194452195356 -23.98554768862771 C-37.98919968978886 -24.428141242616007, -37.43420492738236 -24.8707347966043, -36.96548171047331 -25.244529088840626 C-36.41005698691652 -25.63196933204508, -35.85463226335973 -26.01940957524954, -35.309349388132304 -26.39977530409297 C-34.72396546056573 -26.75463848108163, -34.138581532999154 -27.10950165807029, -33.58260288812404 -27.446539179886763 C-32.989014657804354 -27.75621377943314, -32.395426427484665 -28.065888378979515, -31.79233778220309 -28.3805193389262 C-31.380211293624836 -28.562955510121874, -30.96808480504658 -28.74539168131755, -29.945910653700302 -29.19787785639968 C-29.426064554528768 -29.389186026299466, -28.906218455357234 -29.580494196199254, -28.050908867744077 -29.895256030836055 C-27.498584351970724 -30.05918304790704, -26.94625983619737 -30.223110064978027, -26.115119393149513 -30.469788185729417 C-25.467903009348156 -30.617511101850468, -24.8206866255468 -30.76523401797152, -24.14649680409324 -30.919113445218553 C-23.529206240303917 -31.01891219641219, -22.911915676514592 -31.118710947605834, -22.15313059306196 -31.24138543543225 C-21.612708224463184 -31.293519331377983, -21.07228585586441 -31.34565322732372, -20.143211929392457 -31.435279871635593 C-19.54883900756642 -31.454340254361846, -18.95446608574039 -31.473400637088098, -18.12500000000001 -31.5 C-18.125000000000007 -31.5, -18.125000000000004 -31.5, -18.125 -31.5" stroke="none" stroke-width="0" fill="#FDECF3" style="fill:#FDECF3 !important;stroke:#B83280 !important;stroke-width:2.5px !important"/><path d="M-18.125 -31.5 C-9.405684987783607 -31.5, -0.6863699755672137 -31.5, 18.125 -31.5 M-18.125 -31.5 C-4.631693064990312 -31.5, 8.861613870019376 -31.5, 18.125 -31.5 M18.125 -31.5 C18.125 -31.5, 18.124999999999996 -31.5, 18.124999999999996 -31.5 M18.125 -31.5 C18.125 -31.5, 18.124999999999996 -31.5, 18.124999999999996 -31.5 M18.124999999999996 -31.5 C18.844176670597747 -31.4769374039664, 19.5633533411955 -31.4538748079328, 20.143211929392454 -31.435279871635593 M18.124999999999996 -31.5 C18.59718072123062 -31.48485808331415, 19.069361442461243 -31.469716166628306, 20.143211929392454 -31.435279871635593 M20.143211929392454 -31.435279871635593 C20.89211017218581 -31.36303455883523, 21.64100841497916 -31.290789246034866, 22.153130593061935 -31.241385435432253 M20.143211929392454 -31.435279871635593 C20.66762645178013 -31.384690233361592, 21.192040974167806 -31.33410059508759, 22.153130593061935 -31.241385435432253 M22.153130593061935 -31.241385435432253 C22.62094483536659 -31.16575285669007, 23.088759077671245 -31.090120277947886, 24.146496804093225 -30.91911344521856 M22.153130593061935 -31.241385435432253 C22.87363971674309 -31.12489910794719, 23.59414884042424 -31.008412780462127, 24.146496804093225 -30.91911344521856 M24.146496804093225 -30.91911344521856 C24.822451038518636 -30.764831302224568, 25.49840527294405 -30.61054915923058, 26.115119393149477 -30.469788185729428 M24.146496804093225 -30.91911344521856 C24.909064196155114 -30.74506241419772, 25.671631588217 -30.571011383176877, 26.115119393149477 -30.469788185729428 M26.115119393149477 -30.469788185729428 C26.564762861977574 -30.33633636440798, 27.01440633080567 -30.202884543086533, 28.05090886774405 -29.895256030836062 M26.115119393149477 -30.469788185729428 C26.788850520655586 -30.26982832357247, 27.4625816481617 -30.06986846141551, 28.05090886774405 -29.895256030836062 M28.05090886774405 -29.895256030836062 C28.625166098029926 -29.683924061715214, 29.199423328315802 -29.47259209259437, 29.945910653700285 -29.197877856399685 M28.05090886774405 -29.895256030836062 C28.714403120228926 -29.651084012647992, 29.3778973727138 -29.40691199445992, 29.945910653700285 -29.197877856399685 M29.945910653700285 -29.197877856399685 C30.409449253748175 -28.9926830685425, 30.87298785379607 -28.78748828068532, 31.792337782203077 -28.380519338926202 M29.945910653700285 -29.197877856399685 C30.407951624036308 -28.993346024790338, 30.869992594372334 -28.788814193180993, 31.792337782203077 -28.380519338926202 M31.792337782203077 -28.380519338926202 C32.48677512656217 -28.01823182118241, 33.18121247092127 -27.65594430343862, 33.582602888124036 -27.44653917988677 M31.792337782203077 -28.380519338926202 C32.425599465889576 -28.050147124170426, 33.058861149576074 -27.719774909414646, 33.582602888124036 -27.44653917988677 M33.582602888124036 -27.44653917988677 C34.19612254894679 -27.07461995605429, 34.80964220976955 -26.702700732221807, 35.309349388132276 -26.399775304092984 M33.582602888124036 -27.44653917988677 C34.00062250700688 -27.193133230364033, 34.41864212588973 -26.939727280841296, 35.309349388132276 -26.399775304092984 M35.309349388132276 -26.399775304092984 C35.72099605526926 -26.112628408995235, 36.13264272240625 -25.825481513897486, 36.9654817104733 -25.244529088840633 M35.309349388132276 -26.399775304092984 C35.89288263999141 -25.99272776834339, 36.47641589185055 -25.585680232593795, 36.9654817104733 -25.244529088840633 M36.9654817104733 -25.244529088840633 C37.57975537973369 -24.754662184114316, 38.19402904899409 -24.264795279388, 38.54419445219533 -23.985547688627737 M36.9654817104733 -25.244529088840633 C37.508728385363014 -24.811304322017236, 38.05197506025272 -24.37807955519384, 38.54419445219533 -23.985547688627737 M38.54419445219533 -23.985547688627737 C39.057581469604784 -23.519303182892596, 39.57096848701425 -23.053058677157455, 40.03900034400982 -22.62800452807842 M38.54419445219533 -23.985547688627737 C39.13446965656454 -23.449475365845696, 39.72474486093375 -22.91340304306366, 40.03900034400982 -22.62800452807842 M40.03900034400982 -22.62800452807842 C40.4747332434441 -22.17807453507617, 40.910466142878384 -21.72814454207392, 41.443756907872434 -21.177478043231485 M40.03900034400982 -22.62800452807842 C40.5265137598351 -22.12460690064301, 41.014027175660374 -21.621209273207594, 41.443756907872434 -21.177478043231485 M41.443756907872434 -21.177478043231485 C41.86011914368847 -20.688395269359596, 42.27648137950451 -20.199312495487703, 42.75269169774294 -19.63992875855011 M41.443756907872434 -21.177478043231485 C41.86905688205742 -20.67789649329971, 42.2943568562424 -20.17831494336793, 42.75269169774294 -19.63992875855011 M42.75269169774294 -19.63992875855011 C43.21173329209631 -19.024854841666144, 43.67077488644968 -18.409780924782183, 43.9604260198041 -18.02167479384835 M42.75269169774294 -19.63992875855011 C43.050693490814545 -19.240633504356, 43.34869528388615 -18.841338250161897, 43.9604260198041 -18.02167479384835 M43.9604260198041 -18.02167479384835 C44.375006339091186 -17.38476809301994, 44.78958665837827 -16.747861392191524, 45.0619970346684 -16.329365901781543 M43.9604260198041 -18.02167479384835 C44.23064673855336 -17.606543205426537, 44.50086745730261 -17.191411617004718, 45.0619970346684 -16.329365901781543 M45.0619970346684 -16.329365901781543 C45.260786477350095 -15.976395116686348, 45.45957592003179 -15.623424331591153, 46.05287815074951 -14.56995614258631 M45.0619970346684 -16.329365901781543 C45.36800096844887 -15.786024931095998, 45.674004902229335 -15.242683960410453, 46.05287815074951 -14.56995614258631 M46.05287815074951 -14.56995614258631 C46.234903440761144 -14.191976733159855, 46.41692873077279 -13.8139973237334, 46.92899762499809 -12.750675308355413 M46.05287815074951 -14.56995614258631 C46.284554749922115 -14.088874727319272, 46.516231349094724 -13.607793312052234, 46.92899762499809 -12.750675308355413 M46.92899762499809 -12.750675308355413 C47.1287118354289 -12.257377347379721, 47.328426045859715 -11.764079386404031, 47.68675529456745 -10.878999214271206 M46.92899762499809 -12.750675308355413 C47.11459049676632 -12.292257326893807, 47.300183368534555 -11.833839345432201, 47.68675529456745 -10.878999214271206 M47.68675529456745 -10.878999214271206 C47.83766675811855 -10.424477930531706, 47.98857822166965 -9.969956646792205, 48.32303737065481 -8.962618978877531 M47.68675529456745 -10.878999214271206 C47.820475347441715 -10.476255720411, 47.95419540031599 -10.073512226550795, 48.32303737065481 -8.962618978877531 M48.32303737065481 -8.962618978877531 C48.447580265947316 -8.487682941894953, 48.572123161239816 -8.012746904912374, 48.835229233727446 -7.009409419623907 M48.32303737065481 -8.962618978877531 C48.439026187650065 -8.520303349803335, 48.55501500464533 -8.077987720729139, 48.835229233727446 -7.009409419623907 M48.835229233727446 -7.009409419623907 C48.93236651419493 -6.51063001439485, 49.029503794662425 -6.011850609165792, 49.22122617755518 -5.027396693551458 M48.835229233727446 -7.009409419623907 C48.917500274187006 -6.586965014854644, 48.99977131464656 -6.16452061008538, 49.22122617755518 -5.027396693551458 M49.22122617755518 -5.027396693551458 C49.27516104306793 -4.6090885272784226, 49.32909590858068 -4.190780361005388, 49.479442057899746 -3.024725316091981 M49.22122617755518 -5.027396693551458 C49.301030921289524 -4.408446860377052, 49.38083566502386 -3.789497027202647, 49.479442057899746 -3.024725316091981 M49.479442057899746 -3.024725316091981 C49.50576277702624 -2.6147588699947844, 49.53208349615273 -2.204792423897588, 49.60881581032167 -1.0096246935071378 M49.479442057899746 -3.024725316091981 C49.524158270533604 -2.328234210042478, 49.56887448316746 -1.631743103992975, 49.60881581032167 -1.0096246935071378 M49.60881581032167 -1.0096246935071378 C49.60881581032167 -0.2866868527155566, 49.60881581032167 0.4362509880760246, 49.60881581032167 1.00962469350713 M49.60881581032167 -1.0096246935071378 C49.60881581032167 -0.35315352911398956, 49.60881581032167 0.30331763527915867, 49.60881581032167 1.00962469350713 M49.60881581032167 1.00962469350713 C49.57026438872988 1.6100942029466616, 49.53171296713809 2.210563712386193, 49.479442057899746 3.02472531609196 M49.60881581032167 1.00962469350713 C49.58016859863409 1.4558281391542716, 49.55152138694651 1.9020315848014129, 49.479442057899746 3.02472531609196 M49.479442057899746 3.02472531609196 C49.39208611197772 3.7022407822805614, 49.304730166055684 4.379756248469163, 49.22122617755518 5.027396693551435 M49.479442057899746 3.02472531609196 C49.41784185454581 3.5024843289690595, 49.35624165119187 3.980243341846159, 49.22122617755518 5.027396693551435 M49.22122617755518 5.027396693551435 C49.107737920064544 5.610134910014144, 48.99424966257391 6.192873126476853, 48.835229233727446 7.0094094196239 M49.22122617755518 5.027396693551435 C49.107200182737046 5.612896077540015, 48.99317418791892 6.198395461528596, 48.835229233727446 7.0094094196239 M48.835229233727446 7.0094094196239 C48.71540053501667 7.4663681818946195, 48.5955718363059 7.923326944165339, 48.323037370654816 8.96261897887751 M48.835229233727446 7.0094094196239 C48.66829794737893 7.645990762947951, 48.50136666103042 8.282572106272003, 48.323037370654816 8.96261897887751 M48.323037370654816 8.96261897887751 C48.09967708060838 9.635344584868044, 47.876316790561944 10.308070190858578, 47.686755294567455 10.878999214271184 M48.323037370654816 8.96261897887751 C48.09021024539571 9.663857184193256, 47.8573831201366 10.365095389509003, 47.686755294567455 10.878999214271184 M47.686755294567455 10.878999214271184 C47.41834389969217 11.541980548994433, 47.14993250481688 12.204961883717681, 46.92899762499809 12.750675308355405 M47.686755294567455 10.878999214271184 C47.46874810716787 11.417481182030393, 47.25074091976828 11.9559631497896, 46.92899762499809 12.750675308355405 M46.92899762499809 12.750675308355405 C46.70670041411457 13.212280223153378, 46.48440320323106 13.673885137951352, 46.05287815074951 14.569956142586303 M46.92899762499809 12.750675308355405 C46.62408306706897 13.383836912021609, 46.319168509139864 14.016998515687813, 46.05287815074951 14.569956142586303 M46.05287815074951 14.569956142586303 C45.70045643313552 15.195716588778561, 45.348034715521536 15.821477034970817, 45.06199703466841 16.329365901781536 M46.05287815074951 14.569956142586303 C45.6599450315046 15.267648684598505, 45.2670119122597 15.96534122661071, 45.06199703466841 16.329365901781536 M45.06199703466841 16.329365901781536 C44.820971638415024 16.69964563480789, 44.57994624216165 17.069925367834248, 43.96042601980412 18.021674793848334 M45.06199703466841 16.329365901781536 C44.82044174461085 16.70045969398753, 44.57888645455328 17.07155348619352, 43.96042601980412 18.021674793848334 M43.96042601980412 18.021674793848334 C43.57762509397994 18.534593160570967, 43.19482416815576 19.0475115272936, 42.75269169774295 19.639928758550102 M43.96042601980412 18.021674793848334 C43.68181688521522 18.394985652383145, 43.40320775062632 18.768296510917953, 42.75269169774295 19.639928758550102 M42.75269169774295 19.639928758550102 C42.323963790999976 20.14353695311938, 41.895235884257 20.647145147688658, 41.44375690787245 21.177478043231467 M42.75269169774295 19.639928758550102 C42.29016906790939 20.1832341578358, 41.82764643807583 20.72653955712149, 41.44375690787245 21.177478043231467 M41.44375690787245 21.177478043231467 C40.99269959196308 21.643231754402233, 40.54164227605372 22.108985465573, 40.03900034400983 22.628004528078414 M41.44375690787245 21.177478043231467 C40.927216033516046 21.710848904798933, 40.410675159159645 22.2442197663664, 40.03900034400983 22.628004528078414 M40.03900034400983 22.628004528078414 C39.537779563800946 23.083199979088988, 39.03655878359206 23.538395430099563, 38.544194452195356 23.985547688627715 M40.03900034400983 22.628004528078414 C39.48107896524684 23.134693962480203, 38.923157586483846 23.64138339688199, 38.544194452195356 23.985547688627715 M38.544194452195356 23.985547688627715 C38.14441060138354 24.30436467095507, 37.74462675057173 24.623181653282426, 36.96548171047331 25.24452908884063 M38.544194452195356 23.985547688627715 C37.948145759969286 24.460880659156167, 37.35209706774321 24.93621362968462, 36.96548171047331 25.24452908884063 M36.96548171047331 25.24452908884063 C36.52607245416538 25.551041964320916, 36.08666319785744 25.857554839801203, 35.3093493881323 26.399775304092973 M36.96548171047331 25.24452908884063 C36.44246562244508 25.609362470847586, 35.91944953441684 25.97419585285454, 35.3093493881323 26.399775304092973 M35.3093493881323 26.399775304092973 C34.820876216585376 26.695890611271704, 34.332403045038454 26.99200591845043, 33.58260288812404 27.446539179886766 M35.3093493881323 26.399775304092973 C34.743685138662585 26.742684296333625, 34.178020889192865 27.08559328857428, 33.58260288812404 27.446539179886766 M33.58260288812404 27.446539179886766 C33.045573297529025 27.726707173316317, 32.508543706934006 28.006875166745868, 31.792337782203084 28.3805193389262 M33.58260288812404 27.446539179886766 C32.87382394667499 27.816308699646157, 32.165045005225934 28.186078219405548, 31.792337782203084 28.3805193389262 M31.792337782203084 28.3805193389262 C31.11644621228344 28.67971648731857, 30.440554642363793 28.97891363571094, 29.945910653700295 29.197877856399682 M31.792337782203084 28.3805193389262 C31.32594016797195 28.58697972755266, 30.85954255374082 28.793440116179124, 29.945910653700295 29.197877856399682 M29.945910653700295 29.197877856399682 C29.547440495262336 29.344518558122616, 29.148970336824377 29.491159259845553, 28.05090886774407 29.895256030836055 M29.945910653700295 29.197877856399682 C29.265299116266135 29.448349193679537, 28.58468757883198 29.698820530959388, 28.05090886774407 29.895256030836055 M28.05090886774407 29.895256030836055 C27.6186513945123 30.02354777992547, 27.186393921280526 30.151839529014882, 26.115119393149513 30.46978818572942 M28.05090886774407 29.895256030836055 C27.541242183871276 30.046522427314486, 27.03157549999848 30.197788823792916, 26.115119393149513 30.46978818572942 M26.115119393149513 30.46978818572942 C25.397371659270757 30.633609422245563, 24.679623925392004 30.79743065876171, 24.146496804093236 30.919113445218557 M26.115119393149513 30.46978818572942 C25.645025193991493 30.577084119035902, 25.174930994833474 30.684380052342384, 24.146496804093236 30.919113445218557 M24.146496804093236 30.919113445218557 C23.549332376206557 31.01565835883997, 22.95216794831988 31.112203272461386, 22.153130593061956 31.24138543543225 M24.146496804093236 30.919113445218557 C23.380392275721498 31.04297128413635, 22.61428774734976 31.166829123054143, 22.153130593061956 31.24138543543225 M22.153130593061956 31.24138543543225 C21.3687420009705 31.31705445954601, 20.584353408879046 31.392723483659772, 20.143211929392454 31.435279871635593 M22.153130593061956 31.24138543543225 C21.71220039420851 31.283921441419494, 21.271270195355058 31.326457447406735, 20.143211929392454 31.435279871635593 M20.143211929392454 31.435279871635593 C19.464055992148552 31.457059080646168, 18.78490005490465 31.478838289656743, 18.125000000000007 31.5 M20.143211929392454 31.435279871635593 C19.509709973757268 31.455595046316063, 18.876208018122085 31.47591022099653, 18.125000000000007 31.5 M18.125000000000007 31.5 C18.125000000000004 31.5, 18.125000000000004 31.5, 18.125 31.5 M18.125000000000007 31.5 C18.125000000000007 31.5, 18.125000000000004 31.5, 18.125 31.5 M18.125 31.5 C4.111342960616003 31.5, -9.902314078767994 31.5, -18.124999999999993 31.5 M18.125 31.5 C10.282355947429162 31.5, 2.4397118948583234 31.5, -18.124999999999993 31.5 M-18.124999999999993 31.5 C-18.678608735049846 31.482246845400983, -19.232217470099695 31.464493690801966, -20.143211929392443 31.435279871635593 M-18.124999999999993 31.5 C-18.578096520482777 31.485470076486994, -19.03119304096556 31.470940152973984, -20.143211929392443 31.435279871635593 M-20.143211929392443 31.435279871635593 C-20.80096845227498 31.371826890941072, -21.458724975157516 31.308373910246548, -22.153130593061945 31.24138543543225 M-20.143211929392443 31.435279871635593 C-20.67163105697921 31.384303913914277, -21.20005018456597 31.333327956192964, -22.153130593061945 31.24138543543225 M-22.153130593061945 31.24138543543225 C-22.71714017893574 31.150200739547838, -23.281149764809534 31.059016043663426, -24.146496804093225 30.919113445218557 M-22.153130593061945 31.24138543543225 C-22.64793275181663 31.161389659652844, -23.142734910571317 31.081393883873435, -24.146496804093225 30.919113445218557 M-24.146496804093225 30.919113445218557 C-24.648479441035303 30.804539184079367, -25.150462077977377 30.68996492294018, -26.115119393149474 30.469788185729428 M-24.146496804093225 30.919113445218557 C-24.831593250345772 30.762744652033533, -25.516689696598316 30.606375858848505, -26.115119393149474 30.469788185729428 M-26.115119393149474 30.469788185729428 C-26.594498532247435 30.327510973557605, -27.073877671345397 30.185233761385778, -28.050908867744035 29.89525603083607 M-26.115119393149474 30.469788185729428 C-26.50832209524688 30.35308768771002, -26.90152479734428 30.236387189690614, -28.050908867744035 29.89525603083607 M-28.050908867744035 29.89525603083607 C-28.5721306652201 29.703441591243397, -29.093352462696167 29.51162715165073, -29.945910653700288 29.197877856399685 M-28.050908867744035 29.89525603083607 C-28.806393902472944 29.617230554428726, -29.561878937201854 29.33920507802138, -29.945910653700288 29.197877856399685 M-29.945910653700288 29.197877856399685 C-30.64527491250247 28.888290044931594, -31.34463917130465 28.578702233463506, -31.792337782203077 28.380519338926206 M-29.945910653700288 29.197877856399685 C-30.337550801756326 29.024510380447495, -30.729190949812363 28.85114290449531, -31.792337782203077 28.380519338926206 M-31.792337782203077 28.380519338926206 C-32.15920264443077 28.189126175290177, -32.526067506658464 27.997733011654148, -33.58260288812403 27.446539179886773 M-31.792337782203077 28.380519338926206 C-32.28755297389878 28.12216589061903, -32.782768165594476 27.863812442311854, -33.58260288812403 27.446539179886773 M-33.58260288812403 27.446539179886773 C-34.25146448564781 27.041071348800813, -34.92032608317159 26.635603517714852, -35.30934938813226 26.399775304092994 M-33.58260288812403 27.446539179886773 C-34.07577497138982 27.147575364810194, -34.56894705465561 26.84861154973362, -35.30934938813226 26.399775304092994 M-35.30934938813226 26.399775304092994 C-35.77896573673322 26.07219126867304, -36.248582085334185 25.74460723325309, -36.9654817104733 25.244529088840636 M-35.30934938813226 26.399775304092994 C-35.67887123979742 26.142012856714526, -36.04839309146257 25.884250409336058, -36.9654817104733 25.244529088840636 M-36.9654817104733 25.244529088840636 C-37.32282424557882 24.959557926378206, -37.68016678068434 24.67458676391578, -38.54419445219533 23.98554768862774 M-36.9654817104733 25.244529088840636 C-37.39637224151298 24.900905356815084, -37.82726277255266 24.557281624789535, -38.54419445219533 23.98554768862774 M-38.54419445219533 23.98554768862774 C-39.04152907416465 23.53388154370822, -39.53886369613398 23.082215398788698, -40.03900034400981 22.628004528078435 M-38.54419445219533 23.98554768862774 C-38.877953109626894 23.682436906718554, -39.21171176705847 23.379326124809367, -40.03900034400981 22.628004528078435 M-40.03900034400981 22.628004528078435 C-40.58076571724758 22.068587300446083, -41.122531090485346 21.50917007281373, -41.44375690787244 21.177478043231478 M-40.03900034400981 22.628004528078435 C-40.320006336589564 22.33784276971878, -40.60101232916933 22.047681011359124, -41.44375690787244 21.177478043231478 M-41.44375690787244 21.177478043231478 C-41.95828919795649 20.57307913758205, -42.47282148804054 19.968680231932616, -42.75269169774293 19.639928758550113 M-41.44375690787244 21.177478043231478 C-41.78872454983237 20.77225942177045, -42.13369219179229 20.36704080030942, -42.75269169774293 19.639928758550113 M-42.75269169774293 19.639928758550113 C-43.091726934682775 19.18565242779621, -43.43076217162262 18.731376097042304, -43.9604260198041 18.021674793848355 M-42.75269169774293 19.639928758550113 C-43.05703511978626 19.23213629926818, -43.361378541829595 18.824343839986245, -43.9604260198041 18.021674793848355 M-43.9604260198041 18.021674793848355 C-44.37680375458563 17.38200678014684, -44.79318148936715 16.742338766445325, -45.061997034668394 16.329365901781557 M-43.9604260198041 18.021674793848355 C-44.246659792010604 17.581942855209284, -44.532893564217105 17.142210916570217, -45.061997034668394 16.329365901781557 M-45.061997034668394 16.329365901781557 C-45.32898210793841 15.85530686902039, -45.595967181208415 15.381247836259224, -46.0528781507495 14.569956142586314 M-45.061997034668394 16.329365901781557 C-45.38995633354611 15.747040957144046, -45.717915632423825 15.164716012506537, -46.0528781507495 14.569956142586314 M-46.0528781507495 14.569956142586314 C-46.33298608859455 13.98830601630131, -46.613094026439605 13.406655890016305, -46.92899762499809 12.750675308355417 M-46.0528781507495 14.569956142586314 C-46.237026042457295 14.1875691053214, -46.42117393416508 13.805182068056485, -46.92899762499809 12.750675308355417 M-46.92899762499809 12.750675308355417 C-47.11481919665964 12.291692433735708, -47.30064076832119 11.832709559116, -47.68675529456745 10.878999214271209 M-46.92899762499809 12.750675308355417 C-47.15444228511599 12.193822639188223, -47.379886945233885 11.63696997002103, -47.68675529456745 10.878999214271209 M-47.68675529456745 10.878999214271209 C-47.92844505712672 10.151068157476839, -48.170134819686 9.423137100682471, -48.32303737065481 8.962618978877522 M-47.68675529456745 10.878999214271209 C-47.84803992537311 10.393235603500731, -48.00932455617877 9.907471992730253, -48.32303737065481 8.962618978877522 M-48.32303737065481 8.962618978877522 C-48.427686542224635 8.563546332443915, -48.53233571379446 8.164473686010309, -48.83522923372744 7.009409419623911 M-48.32303737065481 8.962618978877522 C-48.438169545543474 8.523570097426802, -48.55330172043214 8.084521215976082, -48.83522923372744 7.009409419623911 M-48.83522923372744 7.009409419623911 C-48.941743695997445 6.462480167707015, -49.04825815826745 5.915550915790117, -49.22122617755518 5.027396693551461 M-48.83522923372744 7.009409419623911 C-48.97816684336408 6.27545500401429, -49.12110445300071 5.541500588404668, -49.22122617755518 5.027396693551461 M-49.22122617755518 5.027396693551461 C-49.32013981985644 4.260242016570864, -49.4190534621577 3.493087339590266, -49.479442057899746 3.024725316091999 M-49.22122617755518 5.027396693551461 C-49.27975380765452 4.573467952088784, -49.338281437753864 4.1195392106261055, -49.479442057899746 3.024725316091999 M-49.479442057899746 3.024725316091999 C-49.51460985979543 2.4769584146280534, -49.5497776616911 1.9291915131641078, -49.60881581032167 1.0096246935071416 M-49.479442057899746 3.024725316091999 C-49.52658163309667 2.290488382019678, -49.57372120829359 1.5562514479473575, -49.60881581032167 1.0096246935071416 M-49.60881581032167 1.0096246935071416 C-49.60881581032167 0.2659086372464189, -49.60881581032167 -0.4778074190143038, -49.60881581032167 -1.0096246935071262 M-49.60881581032167 1.0096246935071416 C-49.60881581032167 0.5818656839781888, -49.60881581032167 0.15410667444923598, -49.60881581032167 -1.0096246935071262 M-49.60881581032167 -1.0096246935071262 C-49.57649661747031 -1.5130222097499688, -49.54417742461895 -2.0164197259928116, -49.479442057899746 -3.024725316091956 M-49.60881581032167 -1.0096246935071262 C-49.56789294894581 -1.6470312917753596, -49.52697008756994 -2.284437890043593, -49.479442057899746 -3.024725316091956 M-49.479442057899746 -3.024725316091956 C-49.40263617440448 -3.620416581444041, -49.32583029090922 -4.216107846796127, -49.22122617755518 -5.027396693551446 M-49.479442057899746 -3.024725316091956 C-49.41944281167449 -3.490067621623756, -49.35944356544923 -3.955409927155556, -49.22122617755518 -5.027396693551446 M-49.22122617755518 -5.027396693551446 C-49.12283163774281 -5.5326318597945985, -49.024437097930445 -6.03786702603775, -48.835229233727446 -7.009409419623896 M-49.22122617755518 -5.027396693551446 C-49.098209937926676 -5.659059084552364, -48.97519369829817 -6.290721475553283, -48.835229233727446 -7.009409419623896 M-48.835229233727446 -7.009409419623896 C-48.66374977145899 -7.663334928922595, -48.49227030919053 -8.317260438221293, -48.323037370654816 -8.962618978877506 M-48.835229233727446 -7.009409419623896 C-48.652345750011996 -7.706823405234142, -48.469462266296546 -8.404237390844388, -48.323037370654816 -8.962618978877506 M-48.323037370654816 -8.962618978877506 C-48.17757739269833 -9.4007212565823, -48.03211741474185 -9.83882353428709, -47.68675529456746 -10.878999214271168 M-48.323037370654816 -8.962618978877506 C-48.11425153099521 -9.59144866242623, -47.90546569133561 -10.220278345974952, -47.68675529456746 -10.878999214271168 M-47.68675529456746 -10.878999214271168 C-47.43293897773389 -11.505930424054744, -47.17912266090031 -12.132861633838319, -46.92899762499809 -12.750675308355401 M-47.68675529456746 -10.878999214271168 C-47.39002810112563 -11.611921118902494, -47.093300907683805 -12.344843023533821, -46.92899762499809 -12.750675308355401 M-46.92899762499809 -12.750675308355401 C-46.59180467991975 -13.45086367358382, -46.25461173484141 -14.151052038812239, -46.05287815074951 -14.5699561425863 M-46.92899762499809 -12.750675308355401 C-46.71793417164602 -13.188953085275418, -46.50687071829395 -13.627230862195436, -46.05287815074951 -14.5699561425863 M-46.05287815074951 -14.5699561425863 C-45.81397016259738 -14.994161467607505, -45.57506217444525 -15.418366792628708, -45.0619970346684 -16.329365901781546 M-46.05287815074951 -14.5699561425863 C-45.853609744516035 -14.923777375967997, -45.65434133828257 -15.277598609349694, -45.0619970346684 -16.329365901781546 M-45.0619970346684 -16.329365901781546 C-44.7436209078836 -16.8184771284836, -44.425244781098804 -17.307588355185654, -43.96042601980411 -18.021674793848344 M-45.0619970346684 -16.329365901781546 C-44.75799866570545 -16.796389031500677, -44.45400029674251 -17.263412161219804, -43.96042601980411 -18.021674793848344 M-43.96042601980411 -18.021674793848344 C-43.53452877888377 -18.592338296644765, -43.108631537963426 -19.16300179944119, -42.75269169774295 -19.639928758550102 M-43.96042601980411 -18.021674793848344 C-43.52668886355657 -18.60284306895223, -43.092951707309034 -19.184011344056117, -42.75269169774295 -19.639928758550102 M-42.75269169774295 -19.639928758550102 C-42.425657976104 -20.024081176733134, -42.09862425446505 -20.408233594916165, -41.443756907872455 -21.177478043231467 M-42.75269169774295 -19.639928758550102 C-42.38338375150148 -20.07373888642277, -42.01407580526003 -20.50754901429544, -41.443756907872455 -21.177478043231467 M-41.443756907872455 -21.177478043231467 C-41.12929668934084 -21.50218403652944, -40.814836470809226 -21.826890029827414, -40.039000344009835 -22.628004528078403 M-41.443756907872455 -21.177478043231467 C-41.122854051111624 -21.508836589451548, -40.801951194350785 -21.840195135671628, -40.039000344009835 -22.628004528078403 M-40.039000344009835 -22.628004528078403 C-39.53946646274528 -23.081667982100637, -39.039932581480734 -23.53533143612287, -38.544194452195356 -23.98554768862771 M-40.039000344009835 -22.628004528078403 C-39.598112526197134 -23.028407178963473, -39.15722470838443 -23.428809829848547, -38.544194452195356 -23.98554768862771 M-38.544194452195356 -23.98554768862771 C-38.22732947976123 -24.23823907201288, -37.91046450732711 -24.49093045539805, -36.96548171047331 -25.244529088840626 M-38.544194452195356 -23.98554768862771 C-38.2040431363051 -24.256809311243522, -37.86389182041485 -24.528070933859336, -36.96548171047331 -25.244529088840626 M-36.96548171047331 -25.244529088840626 C-36.458862577185556 -25.597924665033354, -35.9522434438978 -25.951320241226085, -35.309349388132304 -26.39977530409297 M-36.96548171047331 -25.244529088840626 C-36.40130862163229 -25.638071812956735, -35.837135532791265 -26.03161453707284, -35.309349388132304 -26.39977530409297 M-35.309349388132304 -26.39977530409297 C-34.77538656425662 -26.723466705840263, -34.241423740380945 -27.047158107587556, -33.58260288812404 -27.446539179886763 M-35.309349388132304 -26.39977530409297 C-34.95196471208937 -26.616423994935673, -34.594580036046445 -26.833072685778372, -33.58260288812404 -27.446539179886763 M-33.58260288812404 -27.446539179886763 C-33.14946132459919 -27.672508856137267, -32.71631976107434 -27.89847853238777, -31.79233778220309 -28.3805193389262 M-33.58260288812404 -27.446539179886763 C-33.19411043893727 -27.649215441786215, -32.805617989750495 -27.851891703685663, -31.79233778220309 -28.3805193389262 M-31.79233778220309 -28.3805193389262 C-31.127075420732844 -28.675011252042285, -30.4618130592626 -28.96950316515837, -29.945910653700302 -29.19787785639968 M-31.79233778220309 -28.3805193389262 C-31.29470777357994 -28.600805382073943, -30.797077764956793 -28.821091425221688, -29.945910653700302 -29.19787785639968 M-29.945910653700302 -29.19787785639968 C-29.195545679906903 -29.474019103053433, -28.445180706113504 -29.750160349707183, -28.050908867744077 -29.895256030836055 M-29.945910653700302 -29.19787785639968 C-29.194709046222066 -29.474326991983208, -28.443507438743833 -29.750776127566738, -28.050908867744077 -29.895256030836055 M-28.050908867744077 -29.895256030836055 C-27.42022193491194 -30.082440601957366, -26.789535002079802 -30.26962517307868, -26.115119393149513 -30.469788185729417 M-28.050908867744077 -29.895256030836055 C-27.612576628387227 -30.025350738624294, -27.174244389030374 -30.15544544641253, -26.115119393149513 -30.469788185729417 M-26.115119393149513 -30.469788185729417 C-25.60240266049956 -30.586812434167406, -25.089685927849608 -30.7038366826054, -24.14649680409324 -30.919113445218553 M-26.115119393149513 -30.469788185729417 C-25.713666504653798 -30.56141718780364, -25.312213616158083 -30.653046189877863, -24.14649680409324 -30.919113445218553 M-24.14649680409324 -30.919113445218553 C-23.609978579589676 -31.00585355099532, -23.073460355086112 -31.092593656772085, -22.15313059306196 -31.24138543543225 M-24.14649680409324 -30.919113445218553 C-23.738553663893462 -30.985066528479752, -23.33061052369369 -31.05101961174095, -22.15313059306196 -31.24138543543225 M-22.15313059306196 -31.24138543543225 C-21.54678511740824 -31.299878854231437, -20.940439641754523 -31.35837227303063, -20.143211929392457 -31.435279871635593 M-22.15313059306196 -31.24138543543225 C-21.527204675051227 -31.301767755956693, -20.901278757040497 -31.362150076481136, -20.143211929392457 -31.435279871635593 M-20.143211929392457 -31.435279871635593 C-19.48115492442625 -31.456510751169077, -18.81909791946004 -31.477741630702557, -18.12500000000001 -31.5 M-20.143211929392457 -31.435279871635593 C-19.69402145306158 -31.449684535915303, -19.244830976730707 -31.464089200195012, -18.12500000000001 -31.5 M-18.12500000000001 -31.5 C-18.125000000000007 -31.5, -18.125000000000004 -31.5, -18.125 -31.5 M-18.12500000000001 -31.5 C-18.125000000000007 -31.5, -18.125000000000007 -31.5, -18.125 -31.5" stroke="#B83280" stroke-width="2.5" fill="none" stroke-dasharray="0 0" style="fill:#FDECF3 !important;stroke:#B83280 !important;stroke-width:2.5px !important"/></g><g class="label" style="color:#702459 !important" transform="translate(-34.25, -24)"><rect/><foreignObject width="68.5" height="48"><div style="color: rgb(112, 36, 89) !important; display: table-cell; white-space: nowrap; line-height: 1.5; max-width: 200px; text-align: center;" xmlns="http://www.w3.org/1999/xhtml"><span style="color:#702459 !important" class="nodeLabel"><p>Float<br />MODULUS</p></span></div></foreignObject></g></g></g></g></g><defs><filter id="my-svg-drop-shadow" height="130%" width="130%"><feDropShadow dx="4" dy="4" stdDeviation="0" flood-opacity="0.06" flood-color="#000000"/></filter></defs><defs><filter id="my-svg-drop-shadow-small" height="150%" width="150%"><feDropShadow dx="2" dy="2" stdDeviation="0" flood-opacity="0.06" flood-color="#000000"/></filter></defs></svg>