<svg id="my-svg" width="565.2896118164062" xmlns="http://www.w3.org/2000/svg" xmlns:xlink="http://www.w3.org/1999/xlink" class="flowchart" style="background-color: white;" viewBox="0 0 565.2896118164062 106" role="graphics-document document" aria-roledescription="flowchart-v2" height="106"><style>#my-svg{font-family:"trebuchet ms",verdana,arial,sans-serif;font-size:40px;fill:#000000;}@keyframes edge-animation-frame{from{stroke-dashoffset:0;}}@keyframes dash{to{stroke-dashoffset:0;}}#my-svg .edge-animation-slow{stroke-dasharray:9,5!important;stroke-dashoffset:900;animation:dash 50s linear infinite;stroke-linecap:round;}#my-svg .edge-animation-fast{stroke-dasharray:9,5!important;stroke-dashoffset:900;animation:dash 20s linear infinite;stroke-linecap:round;}#my-svg .error-icon{fill:#552222;}#my-svg .error-text{fill:#552222;stroke:#552222;}#my-svg .edge-thickness-normal{stroke-width:1px;}#my-svg .edge-thickness-thick{stroke-width:3.5px;}#my-svg .edge-pattern-solid{stroke-dasharray:0;}#my-svg .edge-thickness-invisible{stroke-width:0;fill:none;}#my-svg .edge-pattern-dashed{stroke-dasharray:3;}#my-svg .edge-pattern-dotted{stroke-dasharray:2;}#my-svg .marker{fill:#666;stroke:#666;}#my-svg .marker.cross{stroke:#666;}#my-svg svg{font-family:"trebuchet ms",verdana,arial,sans-serif;font-size:40px;}#my-svg p{margin:0;}#my-svg .label{font-family:"trebuchet ms",verdana,arial,sans-serif;color:#000000;}#my-svg .cluster-label text{fill:#333;}#my-svg .cluster-label span{color:#333;}#my-svg .cluster-label span p{background-color:transparent;}#my-svg .label text,#my-svg span{fill:#000000;color:#000000;}#my-svg .node rect,#my-svg .node circle,#my-svg .node ellipse,#my-svg .node polygon,#my-svg .node path{fill:#eee;stroke:#999;stroke-width:1px;}#my-svg .rough-node .label text,#my-svg .node .label text,#my-svg .image-shape .label,#my-svg .icon-shape .label{text-anchor:middle;}#my-svg .node .katex path{fill:#000;stroke:#000;stroke-width:1px;}#my-svg .rough-node .label,#my-svg .node .label,#my-svg .image-shape .label,#my-svg .icon-shape .label{text-align:center;}#my-svg .node.clickable{cursor:pointer;}#my-svg .root .anchor path{fill:#666!important;stroke-width:0;stroke:#666;}#my-svg .arrowheadPath{fill:#333333;}#my-svg .edgePath .path{stroke:#666;stroke-width:1px;}#my-svg .flowchart-link{stroke:#666;fill:none;}#my-svg .edgeLabel{background-color:white;text-align:center;}#my-svg .edgeLabel p{background-color:white;}#my-svg .edgeLabel rect{opacity:0.5;background-color:white;fill:white;}#my-svg .labelBkg{background-color:rgba(255, 255, 255, 0.5);}#my-svg .cluster rect{fill:hsl(0, 0%, 98.9215686275%);stroke:#707070;stroke-width:1px;}#my-svg .cluster text{fill:#333;}#my-svg .cluster span{color:#333;}#my-svg div.mermaidTooltip{position:absolute;text-align:center;max-width:200px;padding:2px;font-family:"trebuchet ms",verdana,arial,sans-serif;font-size:12px;background:hsl(-160, 0%, 93.3333333333%);border:1px solid #707070;border-radius:2px;pointer-events:none;z-index:100;}#my-svg .flowchartTitleText{text-anchor:middle;font-size:18px;fill:#000000;}#my-svg rect.text{fill:none;stroke-width:0;}#my-svg .icon-shape,#my-svg .image-shape{background-color:white;text-align:center;}#my-svg .icon-shape p,#my-svg .image-shape p{background-color:white;padding:2px;}#my-svg .icon-shape .label rect,#my-svg .image-shape .label rect{opacity:0.5;background-color:white;fill:white;}#my-svg .label-icon{display:inline-block;height:1em;overflow:visible;vertical-align:-0.125em;}#my-svg .node .label-icon path{fill:currentColor;stroke:revert;stroke-width:revert;}#my-svg .node .neo-node{stroke:#999;}#my-svg [data-look="neo"].node rect,#my-svg [data-look="neo"].cluster rect,#my-svg [data-look="neo"].node polygon{stroke:url(#my-svg-gradient);filter:drop-shadow( 1px 2px 2px rgba(185,185,185,1));}#my-svg [data-look="neo"].node path{stroke:url(#my-svg-gradient);stroke-width:1px;}#my-svg [data-look="neo"].node .outer-path{filter:drop-shadow( 1px 2px 2px rgba(185,185,185,1));}#my-svg [data-look="neo"].node .neo-line path{stroke:#999;filter:none;}#my-svg [data-look="neo"].node circle{stroke:url(#my-svg-gradient);filter:drop-shadow( 1px 2px 2px rgba(185,185,185,1));}#my-svg [data-look="neo"].node circle .state-start{fill:#000000;}#my-svg [data-look="neo"].icon-shape .icon{fill:url(#my-svg-gradient);filter:drop-shadow( 1px 2px 2px rgba(185,185,185,1));}#my-svg [data-look="neo"].icon-shape .icon-neo path{stroke:url(#my-svg-gradient);filter:drop-shadow( 1px 2px 2px rgba(185,185,185,1));}#my-svg :root{--mermaid-font-family:"trebuchet ms",verdana,arial,sans-serif;}#my-svg .entryPoint&gt;*{fill:#102A43!important;stroke:#102A43!important;stroke-width:2px!important;color:#102A43!important;}#my-svg .entryPoint span{fill:#102A43!important;stroke:#102A43!important;stroke-width:2px!important;color:#102A43!important;}#my-svg .entryPoint tspan{fill:#102A43!important;}#my-svg .geometryNode&gt;*{fill:#EDF2F7!important;stroke:#2B6CB0!important;stroke-width:2.5px!important;color:#1A365D!important;}#my-svg .geometryNode span{fill:#EDF2F7!important;stroke:#2B6CB0!important;stroke-width:2.5px!important;color:#1A365D!important;}#my-svg .geometryNode tspan{fill:#1A365D!important;}#my-svg .attributeNode&gt;*{fill:#FDECF3!important;stroke:#B83280!important;stroke-width:2.5px!important;color:#702459!important;}#my-svg .attributeNode span{fill:#FDECF3!important;stroke:#B83280!important;stroke-width:2.5px!important;color:#702459!important;}#my-svg .attributeNode tspan{fill:#702459!important;}</style><g><marker id="my-svg_flowchart-v2-pointEnd" class="marker flowchart-v2" viewBox="0 0 10 10" refX="5" refY="5" markerUnits="userSpaceOnUse" markerWidth="8" markerHeight="8" orient="auto"><path d="M 0 0 L 10 5 L 0 10 z" class="arrowMarkerPath" style="stroke-width: 1; stroke-dasharray: 1, 0;"/></marker><marker id="my-svg_flowchart-v2-pointStart" class="marker flowchart-v2" viewBox="0 0 10 10" refX="4.5" refY="5" markerUnits="userSpaceOnUse" markerWidth="8" markerHeight="8" orient="auto"><path d="M 0 5 L 10 10 L 10 0 z" class="arrowMarkerPath" style="stroke-width: 1; stroke-dasharray: 1, 0;"/></marker><marker id="my-svg_flowchart-v2-pointEnd-margin" class="marker flowchart-v2" viewBox="0 0 11.5 14" refX="11.5" refY="7" markerUnits="userSpaceOnUse" markerWidth="10.5" markerHeight="14" orient="auto"><path d="M 0 0 L 11.5 7 L 0 14 z" class="arrowMarkerPath" style="stroke-width: 0; stroke-dasharray: 1, 0;"/></marker><marker id="my-svg_flowchart-v2-pointStart-margin" class="marker flowchart-v2" viewBox="0 0 11.5 14" refX="1" refY="7" markerUnits="userSpaceOnUse" markerWidth="11.5" markerHeight="14" orient="auto"><polygon points="0,7 11.5,14 11.5,0" class="arrowMarkerPath" style="stroke-width: 0; stroke-dasharray: 1, 0;"/></marker><marker id="my-svg_flowchart-v2-circleEnd" class="marker flowchart-v2" viewBox="0 0 10 10" refX="11" refY="5" markerUnits="userSpaceOnUse" markerWidth="11" markerHeight="11" orient="auto"><circle cx="5" cy="5" r="5" class="arrowMarkerPath" style="stroke-width: 1; stroke-dasharray: 1, 0;"/></marker><marker id="my-svg_flowchart-v2-circleStart" class="marker flowchart-v2" viewBox="0 0 10 10" refX="-1" refY="5" markerUnits="userSpaceOnUse" markerWidth="11" markerHeight="11" orient="auto"><circle cx="5" cy="5" r="5" class="arrowMarkerPath" style="stroke-width: 1; stroke-dasharray: 1, 0;"/></marker><marker id="my-svg_flowchart-v2-circleEnd-margin" class="marker flowchart-v2" viewBox="0 0 10 10" refY="5" refX="12.25" markerUnits="userSpaceOnUse" markerWidth="14" markerHeight="14" orient="auto"><circle cx="5" cy="5" r="5" class="arrowMarkerPath" style="stroke-width: 0; stroke-dasharray: 1, 0;"/></marker><marker id="my-svg_flowchart-v2-circleStart-margin" class="marker flowchart-v2" viewBox="0 0 10 10" refX="-2" refY="5" markerUnits="userSpaceOnUse" markerWidth="14" markerHeight="14" orient="auto"><circle cx="5" cy="5" r="5" class="arrowMarkerPath" style="stroke-width: 0; stroke-dasharray: 1, 0;"/></marker><marker id="my-svg_flowchart-v2-crossEnd" class="marker cross flowchart-v2" viewBox="0 0 11 11" refX="12" refY="5.2" markerUnits="userSpaceOnUse" markerWidth="11" markerHeight="11" orient="auto"><path d="M 1,1 l 9,9 M 10,1 l -9,9" class="arrowMarkerPath" style="stroke-width: 2; stroke-dasharray: 1, 0;"/></marker><marker id="my-svg_flowchart-v2-crossStart" class="marker cross flowchart-v2" viewBox="0 0 11 11" refX="-1" refY="5.2" markerUnits="userSpaceOnUse" markerWidth="11" markerHeight="11" orient="auto"><path d="M 1,1 l 9,9 M 10,1 l -9,9" class="arrowMarkerPath" style="stroke-width: 2; stroke-dasharray: 1, 0;"/></marker><marker id="my-svg_flowchart-v2-crossEnd-margin" class="marker cross flowchart-v2" viewBox="0 0 15 15" refX="17.7" refY="7.5" markerUnits="userSpaceOnUse" markerWidth="12" markerHeight="12" orient="auto"><path d="M 1,1 L 14,14 M 1,14 L 14,1" class="arrowMarkerPath" style="stroke-width: 2.5;"/></marker><marker id="my-svg_flowchart-v2-crossStart-margin" class="marker cross flowchart-v2" viewBox="0 0 15 15" refX="-3.5" refY="7.5" markerUnits="userSpaceOnUse" markerWidth="12" markerHeight="12" orient="auto"><path d="M 1,1 L 14,14 M 1,14 L 14,1" class="arrowMarkerPath" style="stroke-width: 2.5; stroke-dasharray: 1, 0;"/></marker><g class="root"><g class="clusters"/><g class="edgePaths"><path d="M23,53L27.167,53C31.333,53,39.667,53,47.333,53C55,53,62,53,65.5,53L69,53" id="my-svg-L_Entry_Geom_0" class="edge-thickness-normal edge-pattern-solid edge-thickness-normal edge-pattern-solid flowchart-link" style=";" data-edge="true" data-et="edge" data-id="L_Entry_Geom_0" data-points="W3sieCI6MjMsInkiOjUzfSx7IngiOjQ4LCJ5Ijo1M30seyJ4Ijo3MywieSI6NTN9XQ==" data-look="classic" marker-end="url(#my-svg_flowchart-v2-pointEnd)"/><path d="M309.484,53L313.651,53C317.818,53,326.151,53,333.901,53.07C341.651,53.141,348.818,53.281,352.402,53.351L355.985,53.422" id="my-svg-L_Geom_Attr_0" class="edge-thickness-normal edge-pattern-dotted edge-thickness-normal edge-pattern-solid flowchart-link" style=";" data-edge="true" data-et="edge" data-id="L_Geom_Attr_0" data-points="W3sieCI6MzA5LjQ4NDM3NSwieSI6NTN9LHsieCI6MzM0LjQ4NDM3NSwieSI6NTN9LHsieCI6MzU5Ljk4NDM3NDk5OTk5OTksInkiOjUzLjUwMDAwMDAwMDAwMDAxfV0=" data-look="classic" marker-end="url(#my-svg_flowchart-v2-pointEnd)"/></g><g class="edgeLabels"><g class="edgeLabel"><g class="label" data-id="L_Entry_Geom_0" transform="translate(0, 0)"><foreignObject width="0" height="0"><div xmlns="http://www.w3.org/1999/xhtml" class="labelBkg" style="display: table-cell; white-space: nowrap; line-height: 1.5; max-width: 200px; text-align: center;"><span class="edgeLabel"></span></div></foreignObject></g></g><g class="edgeLabel"><g class="label" data-id="L_Geom_Attr_0" transform="translate(0, 0)"><foreignObject width="0" height="0"><div xmlns="http://www.w3.org/1999/xhtml" class="labelBkg" style="display: table-cell; white-space: nowrap; line-height: 1.5; max-width: 200px; text-align: center;"><span class="edgeLabel"></span></div></foreignObject></g></g></g><g class="nodes"><g class="node default entryPoint" id="my-svg-flowchart-Entry-0" data-look="classic" transform="translate(15.5, 53)"><circle class="basic label-container" style="fill:#102A43 !important;stroke:#102A43 !important;stroke-width:2px !important" r="7.5" cx="0" cy="0"/><g class="label" style="color:#102A43 !important" transform="translate(0, 0)"><rect/><foreignObject width="0" height="0"><div style="color: rgb(16, 42, 67) !important; display: table-cell; white-space: nowrap; line-height: 1.5; max-width: 200px; text-align: center;" xmlns="http://www.w3.org/1999/xhtml"><span style="color:#102A43 !important" class="nodeLabel"></span></div></foreignObject></g></g><g class="node default geometryNode" id="my-svg-flowchart-Geom-1" data-look="classic" transform="translate(191.2421875, 53)"><rect class="basic label-container" style="fill:#EDF2F7 !important;stroke:#2B6CB0 !important;stroke-width:2.5px !important" x="-118.2421875" y="-45" width="236.484375" height="90"/><g class="label" style="color:#1A365D !important" transform="translate(-88.2421875, -30)"><rect/><foreignObject width="176.484375" height="60"><div style="color: rgb(26, 54, 93) !important; display: table-cell; white-space: nowrap; line-height: 1.5; max-width: 200px; text-align: center;" xmlns="http://www.w3.org/1999/xhtml"><span style="color:#1A365D !important" class="nodeLabel"><p>Geometry</p></span></div></foreignObject></g></g><g class="node default attributeNode" id="my-svg-flowchart-Attr-2" data-look="classic" transform="translate(458.3869857788086, 53)"><g class="basic label-container outer-path"><path d="M-61.421875 -37.5 C-20.295199065613744 -37.5, 20.831476868772512 -37.5, 61.421875 -37.5 C61.421875 -37.5, 61.421875 -37.5, 61.421875 -37.5 C62.125714279941285 -37.47742924423233, 62.82955355988257 -37.454858488464666, 63.82450824927673 -37.42295222813761 C64.52951909072691 -37.3549406801625, 65.2345299321771 -37.286929132187396, 66.21726856316897 -37.19212551837173 C66.99592374729802 -37.066238586762886, 67.77457893142707 -36.940351655154046, 68.59032357630146 -36.80846838716496 C69.0919555353399 -36.69397416596888, 69.59358749437835 -36.57947994477281, 70.93392189660652 -36.273557363963604 C71.8353250565205 -36.00602563766287, 72.73672821643447 -35.73849391136215, 73.23843317588577 -35.589590512900074 C73.88246685628171 -35.35258016513229, 74.52650053667764 -35.11556981736451, 75.49438768297652 -34.75937840047582 C76.11503079244736 -34.484638106636794, 76.73567390191818 -34.20989781279776, 77.69251521690842 -33.78633254634072 C78.41824206055148 -33.407721316862364, 79.14396890419454 -33.02911008738401, 79.82378320014766 -32.674451404627106 C80.23511705167365 -32.42509840656602, 80.64645090319965 -32.17574540850494, 81.87943379539557 -31.428303933444028 C82.33062525252146 -31.113572304716392, 82.78181670964734 -30.798840675988753, 83.8510198934206 -30.053010820048375 C84.57195761617952 -29.478082171106664, 85.29289533893842 -28.90315352216495, 85.73043982404207 -28.554223438842545 C86.14668162576794 -28.176203647669677, 86.56292342749381 -27.798183856496806, 87.50997064763074 -26.938100628664785 C88.01861116119154 -26.41288753825046, 88.52725167475235 -25.887674447836133, 89.18229989032433 -25.211283384799387 C89.77820080689226 -24.511304260475978, 90.3741017234602 -23.811325136152565, 90.74055559255112 -23.38086756970251 C91.1493629933221 -22.83310289578976, 91.5581703940931 -22.28533822187701, 92.17833454738584 -21.45437475458137 C92.56977390011963 -20.853018792598416, 92.96121325285341 -20.25166283061546, 93.48972861270047 -19.439721311644693 C93.81861071725247 -18.8557578320883, 94.14749282180446 -18.271794352531913, 94.66934898898751 -17.345185884031324 C95.08290128188749 -16.48643569922296, 95.49645357478747 -15.627685514414598, 95.71234836309296 -15.179375367089778 C95.90182359932997 -14.711367870329855, 96.091298835567 -14.243360373569933, 96.614440826866 -12.951189540799055 C96.8521863816343 -12.235137809446945, 97.08993193640259 -11.519086078094833, 97.37191948887477 -10.669784498663727 C97.51393391256619 -10.128221951687802, 97.6559483362576 -9.586659404711877, 97.98167170681839 -8.344535023361795 C98.15478287960099 -7.455645738182482, 98.32789405238358 -6.566756453003169, 98.44119187804188 -5.984996063751735 C98.50458325788506 -5.493345039731909, 98.56797463772823 -5.001694015712083, 98.74859173559494 -3.600863471538073 C98.78757616154687 -2.9936495696745915, 98.82656058749879 -2.38643566781111, 98.9026081075258 -1.2019341589370687 C98.9026081075258 -0.27616930555455754, 98.9026081075258 0.6495955478279536, 98.9026081075258 1.2019341589370596 C98.8516092530014 1.996282483688977, 98.800610398477 2.7906308084408944, 98.74859173559494 3.600863471538047 C98.67729469076149 4.153829272072407, 98.60599764592801 4.706795072606768, 98.44119187804188 5.984996063751709 C98.26652721313248 6.88186220267149, 98.09186254822308 7.778728341591273, 97.98167170681839 8.344535023361786 C97.81402858576894 8.983830900911595, 97.64638546471949 9.623126778461405, 97.37191948887477 10.669784498663702 C97.0833181922039 11.539005621864272, 96.79471689553303 12.408226745064841, 96.61444082686602 12.951189540799028 C96.26395981575948 13.816884414321544, 95.91347880465295 14.682579287844062, 95.71234836309297 15.179375367089767 C95.39612539624484 15.836019123837485, 95.07990242939672 16.4926628805852, 94.66934898898751 17.345185884031313 C94.22010841973778 18.14285800527465, 93.77086785048806 18.940530126517988, 93.48972861270047 19.439721311644686 C93.20434057225064 19.878153979194746, 92.9189525318008 20.31658664674481, 92.17833454738584 21.454374754581348 C91.75029778329308 22.027905023514247, 91.32226101920031 22.60143529244715, 90.74055559255112 23.380867569702502 C90.25075235684781 23.956218320953262, 89.76094912114449 24.531569072204025, 89.18229989032434 25.211283384799366 C88.74013391998457 25.66785605167648, 88.2979679496448 26.1244287185536, 87.50997064763075 26.938100628664778 C87.08994512686128 27.319556693361324, 86.6699196060918 27.70101275805787, 85.7304398240421 28.55422343884252 C85.22500039806812 28.957297930748766, 84.71956097209414 29.36037242265501, 83.85101989342061 30.053010820048367 C83.39526745050499 30.37092399502103, 82.93951500758936 30.688837169993693, 81.87943379539558 31.428303933444013 C81.20226647350377 31.838806743451734, 80.52509915161195 32.249309553459454, 79.82378320014766 32.674451404627106 C79.2730726785359 32.96175673100504, 78.72236215692413 33.24906205738297, 77.69251521690843 33.78633254634072 C77.22210026699558 33.99457129030345, 76.75168531708273 34.20281003426617, 75.49438768297654 34.75937840047581 C74.81233009650656 35.01038189716798, 74.13027251003658 35.261385393860145, 73.2384331758858 35.58959051290007 C72.70293488893603 35.748523593578895, 72.16743660198625 35.907456674257716, 70.93392189660656 36.2735573639636 C70.26955819829784 36.42519404272427, 69.60519449998912 36.57683072148494, 68.59032357630147 36.80846838716495 C68.00655144020264 36.90284813890888, 67.42277930410381 36.99722789065281, 66.217268563169 37.192125518371725 C65.62246060532154 37.24950592670404, 65.02765264747408 37.30688633503635, 63.82450824927673 37.42295222813761 C63.18111312224129 37.443584657569, 62.53771799520586 37.46421708700038, 61.42187500000001 37.5 C61.42187500000001 37.5, 61.421875 37.5, 61.421875 37.5 C15.10679516055442 37.5, -31.20828467889116 37.5, -61.42187499999999 37.5 C-62.24502382700664 37.47360321927989, -63.06817265401329 37.44720643855978, -63.82450824927672 37.42295222813761 C-64.6455917908319 37.34374328638122, -65.46667533238707 37.26453434462482, -66.21726856316899 37.192125518371725 C-66.82728606655222 37.093502619181116, -67.43730356993547 36.99487971999051, -68.59032357630146 36.80846838716495 C-69.5033677835861 36.600072005022504, -70.41641199087073 36.39167562288006, -70.93392189660652 36.273557363963604 C-71.589834855699 36.07888584066234, -72.24574781479146 35.88421431736108, -73.23843317588576 35.58959051290008 C-73.91887328363165 35.33918226333019, -74.59931339137755 35.08877401376029, -75.49438768297654 34.75937840047582 C-76.28020404695333 34.411520806557505, -77.06602041093014 34.06366321263919, -77.69251521690842 33.786332546340724 C-78.44231803898268 33.395160894336215, -79.19212086105694 33.003989242331706, -79.82378320014766 32.67445140462711 C-80.35750243152121 32.350907670086116, -80.89122166289478 32.02736393554511, -81.87943379539556 31.428303933444038 C-82.47761621664765 31.011037771278247, -83.07579863789972 30.593771609112455, -83.8510198934206 30.053010820048378 C-84.3982324228356 29.61662338977688, -84.94544495225061 29.180235959505385, -85.73043982404207 28.55422343884255 C-86.21057712277357 28.118175447871373, -86.69071442150508 27.682127456900197, -87.50997064763072 26.938100628664802 C-87.96242931383168 26.470899908264972, -88.41488798003263 26.003699187865145, -89.18229989032433 25.21128338479938 C-89.73200772558648 24.565565282238524, -90.28171556084865 23.919847179677664, -90.74055559255112 23.380867569702513 C-91.0789592371395 22.92743751516032, -91.41736288172788 22.47400746061813, -92.17833454738584 21.454374754581377 C-92.65578119198057 20.72088849610839, -93.13322783657527 19.987402237635408, -93.48972861270047 19.43972131164471 C-93.81300239385392 18.865715978186763, -94.13627617500737 18.29171064472882, -94.66934898898751 17.345185884031327 C-94.89353945859794 16.879649576977645, -95.11772992820839 16.41411326992396, -95.71234836309296 15.179375367089781 C-95.9434917019159 14.608446851344649, -96.17463504073886 14.037518335599515, -96.614440826866 12.951189540799058 C-96.91596277855837 12.043053463300577, -97.21748473025072 11.134917385802094, -97.37191948887477 10.669784498663716 C-97.5384125246999 10.034874394524332, -97.70490556052502 9.399964290384947, -97.98167170681839 8.344535023361798 C-98.16059135005986 7.425820469996838, -98.33951099330133 6.507105916631878, -98.44119187804188 5.984996063751739 C-98.5528799621757 5.118765338516719, -98.6645680463095 4.2525346132817, -98.74859173559493 3.6008634715380943 C-98.79720794903112 2.8436267049682344, -98.84582416246731 2.086389938398375, -98.9026081075258 1.2019341589370733 C-98.9026081075258 0.29926081562421636, -98.9026081075258 -0.6034125276886406, -98.9026081075258 -1.2019341589370551 C-98.86706433241257 -1.7555571467444664, -98.83152055729934 -2.3091801345518777, -98.74859173559494 -3.6008634715380428 C-98.63807093306141 -4.45804099118701, -98.5275501305279 -5.315218510835978, -98.44119187804188 -5.984996063751721 C-98.34078105021612 -6.50058444280102, -98.24037022239035 -7.016172821850319, -97.98167170681839 -8.34453502336178 C-97.7912961677631 -9.070519463060156, -97.60092062870781 -9.796503902758532, -97.37191948887478 -10.669784498663699 C-97.08708883078324 -11.527649059232981, -96.80225817269171 -12.385513619802262, -96.61444082686603 -12.95118954079901 C-96.43359088146542 -13.39789240243433, -96.25274093606482 -13.84459526406965, -95.71234836309297 -15.179375367089763 C-95.42020792875428 -15.786011229797985, -95.12806749441559 -16.39264709250621, -94.66934898898751 -17.34518588403131 C-94.42672178757012 -17.77599504881616, -94.18409458615274 -18.20680421360101, -93.48972861270047 -19.439721311644696 C-92.97279269132557 -20.233873703607625, -92.45585676995066 -21.028026095570556, -92.17833454738584 -21.454374754581362 C-91.76123947876292 -22.013244148393635, -91.34414441013999 -22.57211354220591, -90.74055559255112 -23.380867569702502 C-90.36830547858689 -23.818133735196422, -89.99605536462266 -24.255399900690342, -89.18229989032434 -25.211283384799366 C-88.55814311833286 -25.855776496104557, -87.93398634634138 -26.50026960740975, -87.50997064763075 -26.938100628664763 C-86.98840233142086 -27.411775173505156, -86.46683401521098 -27.885449718345548, -85.7304398240421 -28.554223438842516 C-85.0842072239705 -29.069576740427898, -84.43797462389891 -29.58493004201328, -83.85101989342061 -30.053010820048364 C-83.35612534701177 -30.39822783198355, -82.86123080060291 -30.743444843918738, -81.8794337953956 -31.42830393344401 C-81.30641344258417 -31.775672238759665, -80.73339308977276 -32.12304054407532, -79.82378320014767 -32.6744514046271 C-79.0425302372726 -33.08203057494262, -78.26127727439753 -33.48960974525814, -77.69251521690845 -33.78633254634072 C-76.99896207074103 -34.093347950625926, -76.30540892457361 -34.400363354911136, -75.49438768297655 -34.75937840047581 C-74.96578820743787 -34.95390789379403, -74.43718873189918 -35.14843738711225, -73.2384331758858 -35.58959051290007 C-72.4100240056841 -35.83545800620746, -71.58161483548238 -36.08132549951486, -70.93392189660656 -36.27355736396359 C-70.37851425915294 -36.400325532838835, -69.8231066216993 -36.52709370171407, -68.59032357630147 -36.80846838716494 C-67.76785022719598 -36.94143949987224, -66.9453768780905 -37.07441061257953, -66.217268563169 -37.192125518371725 C-65.46697120342694 -37.26450580230144, -64.71667384368487 -37.33688608623117, -63.82450824927674 -37.42295222813761 C-63.246540443664394 -37.44148653071751, -62.668572638052055 -37.46002083329741, -61.421875000000014 -37.5 C-61.42187500000001 -37.5, -61.42187500000001 -37.5, -61.421875 -37.5" stroke="none" stroke-width="0" fill="#FDECF3" style="fill:#FDECF3 !important;stroke:#B83280 !important;stroke-width:2.5px !important"/><path d="M-61.421875 -37.5 C-17.732716875745005 -37.5, 25.95644124850999 -37.5, 61.421875 -37.5 M-61.421875 -37.5 C-32.9504294203243 -37.5, -4.4789838406485885 -37.5, 61.421875 -37.5 M61.421875 -37.5 C61.421875 -37.5, 61.421875 -37.5, 61.421875 -37.5 M61.421875 -37.5 C61.421875 -37.5, 61.421875 -37.5, 61.421875 -37.5 M61.421875 -37.5 C62.04655015466855 -37.479967883646204, 62.671225309337096 -37.459935767292414, 63.82450824927673 -37.42295222813761 M61.421875 -37.5 C62.30102243314723 -37.47180745297564, 63.18016986629446 -37.44361490595127, 63.82450824927673 -37.42295222813761 M63.82450824927673 -37.42295222813761 C64.34336224878777 -37.37289900681801, 64.86221624829881 -37.322845785498416, 66.21726856316897 -37.19212551837173 M63.82450824927673 -37.42295222813761 C64.74799773548223 -37.33386430806197, 65.67148722168773 -37.24477638798633, 66.21726856316897 -37.19212551837173 M66.21726856316897 -37.19212551837173 C67.10842118420435 -37.048050873594526, 67.99957380523972 -36.90397622881732, 68.59032357630146 -36.80846838716496 M66.21726856316897 -37.19212551837173 C66.96340132330238 -37.07149656005934, 67.70953408343578 -36.95086760174694, 68.59032357630146 -36.80846838716496 M68.59032357630146 -36.80846838716496 C69.31199556696174 -36.6437514646466, 70.03366755762202 -36.47903454212823, 70.93392189660652 -36.273557363963604 M68.59032357630146 -36.80846838716496 C69.37858873045832 -36.628552009639506, 70.16685388461518 -36.448635632114055, 70.93392189660652 -36.273557363963604 M70.93392189660652 -36.273557363963604 C71.61764205283144 -36.070632810516386, 72.30136220905635 -35.86770825706917, 73.23843317588577 -35.589590512900074 M70.93392189660652 -36.273557363963604 C71.53964069954951 -36.093783202733, 72.14535950249251 -35.9140090415024, 73.23843317588577 -35.589590512900074 M73.23843317588577 -35.589590512900074 C74.01664417833923 -35.30320167029355, 74.79485518079271 -35.016812827687026, 75.49438768297652 -34.75937840047582 M73.23843317588577 -35.589590512900074 C73.93912677380796 -35.331728791724096, 74.63982037173015 -35.07386707054811, 75.49438768297652 -34.75937840047582 M75.49438768297652 -34.75937840047582 C76.01488890593973 -34.528967949190196, 76.53539012890293 -34.29855749790458, 77.69251521690842 -33.78633254634072 M75.49438768297652 -34.75937840047582 C76.37267684111029 -34.37058584369219, 77.25096599924406 -33.98179328690856, 77.69251521690842 -33.78633254634072 M77.69251521690842 -33.78633254634072 C78.45996909151829 -33.38595235153442, 79.22742296612815 -32.985572156728125, 79.82378320014766 -32.674451404627106 M77.69251521690842 -33.78633254634072 C78.20762970817572 -33.517597646193146, 78.72274419944303 -33.248862746045575, 79.82378320014766 -32.674451404627106 M79.82378320014766 -32.674451404627106 C80.33575175617577 -32.36409305730167, 80.84772031220388 -32.05373470997625, 81.87943379539557 -31.428303933444028 M79.82378320014766 -32.674451404627106 C80.34440650934121 -32.35884649507181, 80.86502981853477 -32.04324158551651, 81.87943379539557 -31.428303933444028 M81.87943379539557 -31.428303933444028 C82.409946795178 -31.058241030333424, 82.94045979496043 -30.68817812722282, 83.8510198934206 -30.053010820048375 M81.87943379539557 -31.428303933444028 C82.43686019934462 -31.039467404649283, 82.99428660329366 -30.65063087585454, 83.8510198934206 -30.053010820048375 M83.8510198934206 -30.053010820048375 C84.54363079206712 -29.500672059527844, 85.23624169071365 -28.94833329900731, 85.73043982404207 -28.554223438842545 M83.8510198934206 -30.053010820048375 C84.45917600176409 -29.568022507358158, 85.06733211010757 -29.083034194667942, 85.73043982404207 -28.554223438842545 M85.73043982404207 -28.554223438842545 C86.37657131354547 -27.967423915777953, 87.02270280304886 -27.380624392713358, 87.50997064763074 -26.938100628664785 M85.73043982404207 -28.554223438842545 C86.30203081487616 -28.035119624435886, 86.87362180571027 -27.51601581002923, 87.50997064763074 -26.938100628664785 M87.50997064763074 -26.938100628664785 C88.07105133888484 -26.358738749363475, 88.63213203013893 -25.779376870062165, 89.18229989032433 -25.211283384799387 M87.50997064763074 -26.938100628664785 C88.07753997969576 -26.35203869499889, 88.64510931176076 -25.76597676133299, 89.18229989032433 -25.211283384799387 M89.18229989032433 -25.211283384799387 C89.7948858223912 -24.49170509186666, 90.40747175445804 -23.77212679893393, 90.74055559255112 -23.38086756970251 M89.18229989032433 -25.211283384799387 C89.7259348862142 -24.572698784919556, 90.2695698821041 -23.934114185039725, 90.74055559255112 -23.38086756970251 M90.74055559255112 -23.38086756970251 C91.07552896602978 -22.932033765943224, 91.41050233950843 -22.48319996218394, 92.17833454738584 -21.45437475458137 M90.74055559255112 -23.38086756970251 C91.2370345405452 -22.71563100955309, 91.73351348853926 -22.05039444940367, 92.17833454738584 -21.45437475458137 M92.17833454738584 -21.45437475458137 C92.59072540760897 -20.820831650827266, 93.0031162678321 -20.18728854707316, 93.48972861270047 -19.439721311644693 M92.17833454738584 -21.45437475458137 C92.64079110717566 -20.743917291770092, 93.10324766696547 -20.033459828958815, 93.48972861270047 -19.439721311644693 M93.48972861270047 -19.439721311644693 C93.87040832879039 -18.763785927725802, 94.2510880448803 -18.087850543806912, 94.66934898898751 -17.345185884031324 M93.48972861270047 -19.439721311644693 C93.9604429043557 -18.60392042182019, 94.43115719601094 -17.76811953199569, 94.66934898898751 -17.345185884031324 M94.66934898898751 -17.345185884031324 C94.98215063820433 -16.695646566549456, 95.29495228742117 -16.046107249067592, 95.71234836309296 -15.179375367089778 M94.66934898898751 -17.345185884031324 C94.97508326279969 -16.71032212279481, 95.28081753661188 -16.075458361558297, 95.71234836309296 -15.179375367089778 M95.71234836309296 -15.179375367089778 C96.01017810891805 -14.443730136755375, 96.30800785474315 -13.708084906420973, 96.614440826866 -12.951189540799055 M95.71234836309296 -15.179375367089778 C95.9627722336547 -14.560823565186096, 96.21319610421645 -13.942271763282413, 96.614440826866 -12.951189540799055 M96.614440826866 -12.951189540799055 C96.88534171993214 -12.135279213079631, 97.15624261299827 -11.319368885360205, 97.37191948887477 -10.669784498663727 M96.614440826866 -12.951189540799055 C96.88738493736798 -12.129125367705335, 97.16032904786998 -11.307061194611615, 97.37191948887477 -10.669784498663727 M97.37191948887477 -10.669784498663727 C97.60601301739929 -9.777084417622671, 97.84010654592382 -8.884384336581615, 97.98167170681839 -8.344535023361795 M97.37191948887477 -10.669784498663727 C97.5680302516748 -9.921929165164975, 97.76414101447483 -9.174073831666226, 97.98167170681839 -8.344535023361795 M97.98167170681839 -8.344535023361795 C98.08442964614532 -7.816894722816176, 98.18718758547224 -7.289254422270559, 98.44119187804188 -5.984996063751735 M97.98167170681839 -8.344535023361795 C98.1329396777532 -7.567805963108491, 98.28420764868802 -6.7910769028551865, 98.44119187804188 -5.984996063751735 M98.44119187804188 -5.984996063751735 C98.56280472115489 -5.041790867739442, 98.68441756426789 -4.0985856717271485, 98.74859173559494 -3.600863471538073 M98.44119187804188 -5.984996063751735 C98.54759035359817 -5.159790498092652, 98.65398882915446 -4.334584932433568, 98.74859173559494 -3.600863471538073 M98.74859173559494 -3.600863471538073 C98.7868642182409 -3.0047386613354736, 98.82513670088683 -2.4086138511328743, 98.9026081075258 -1.2019341589370687 M98.74859173559494 -3.600863471538073 C98.78126792817342 -3.091905396380402, 98.81394412075188 -2.5829473212227305, 98.9026081075258 -1.2019341589370687 M98.9026081075258 -1.2019341589370687 C98.9026081075258 -0.5716769068200914, 98.9026081075258 0.05858034529688583, 98.9026081075258 1.2019341589370596 M98.9026081075258 -1.2019341589370687 C98.9026081075258 -0.25310250744339013, 98.9026081075258 0.6957291440502884, 98.9026081075258 1.2019341589370596 M98.9026081075258 1.2019341589370596 C98.85980846564885 1.868573128419488, 98.81700882377193 2.5352120979019164, 98.74859173559494 3.600863471538047 M98.9026081075258 1.2019341589370596 C98.84631190103143 2.0787930165669377, 98.79001569453705 2.955651874196816, 98.74859173559494 3.600863471538047 M98.74859173559494 3.600863471538047 C98.64439082939701 4.409025123212863, 98.54018992319908 5.217186774887678, 98.44119187804188 5.984996063751709 M98.74859173559494 3.600863471538047 C98.68699949352762 4.078560738248281, 98.6254072514603 4.556258004958514, 98.44119187804188 5.984996063751709 M98.44119187804188 5.984996063751709 C98.33463800920849 6.53212766004298, 98.22808414037512 7.079259256334252, 97.98167170681839 8.344535023361786 M98.44119187804188 5.984996063751709 C98.27203033518715 6.853604834005981, 98.10286879233243 7.722213604260254, 97.98167170681839 8.344535023361786 M97.98167170681839 8.344535023361786 C97.8362260353905 8.899182405069071, 97.6907803639626 9.453829786776359, 97.37191948887477 10.669784498663702 M97.98167170681839 8.344535023361786 C97.7723495885642 9.142770981044935, 97.56302747031 9.941006938728083, 97.37191948887477 10.669784498663702 M97.37191948887477 10.669784498663702 C97.21954107916686 11.128723990501403, 97.06716266945894 11.587663482339103, 96.61444082686602 12.951189540799028 M97.37191948887477 10.669784498663702 C97.07201697080515 11.5730431001122, 96.77211445273554 12.476301701560695, 96.61444082686602 12.951189540799028 M96.61444082686602 12.951189540799028 C96.42646787003729 13.415486378375874, 96.23849491320856 13.87978321595272, 95.71234836309297 15.179375367089767 M96.61444082686602 12.951189540799028 C96.28147397955733 13.77362409112754, 95.94850713224865 14.59605864145605, 95.71234836309297 15.179375367089767 M95.71234836309297 15.179375367089767 C95.42002752687321 15.786385838163998, 95.12770669065347 16.393396309238227, 94.66934898898751 17.345185884031313 M95.71234836309297 15.179375367089767 C95.46603364328378 15.69085315306428, 95.21971892347457 16.202330939038795, 94.66934898898751 17.345185884031313 M94.66934898898751 17.345185884031313 C94.31483974999942 17.974652935807732, 93.96033051101135 18.60411998758415, 93.48972861270047 19.439721311644686 M94.66934898898751 17.345185884031313 C94.2554377098286 18.080127273239864, 93.84152643066969 18.815068662448418, 93.48972861270047 19.439721311644686 M93.48972861270047 19.439721311644686 C93.09077555362875 20.05262034427539, 92.691822494557 20.665519376906094, 92.17833454738584 21.454374754581348 M93.48972861270047 19.439721311644686 C93.07714724204415 20.073557090583403, 92.66456587138781 20.707392869522117, 92.17833454738584 21.454374754581348 M92.17833454738584 21.454374754581348 C91.83776163287624 21.910711433193423, 91.49718871836664 22.367048111805502, 90.74055559255112 23.380867569702502 M92.17833454738584 21.454374754581348 C91.76877866586908 22.003142324505443, 91.35922278435231 22.551909894429535, 90.74055559255112 23.380867569702502 M90.74055559255112 23.380867569702502 C90.12667474655578 24.10196694221831, 89.51279390056044 24.82306631473412, 89.18229989032434 25.211283384799366 M90.74055559255112 23.380867569702502 C90.24931088603414 23.957911554593004, 89.75806617951717 24.53495553948351, 89.18229989032434 25.211283384799366 M89.18229989032434 25.211283384799366 C88.65545324267087 25.755295803415773, 88.12860659501742 26.299308222032185, 87.50997064763075 26.938100628664778 M89.18229989032434 25.211283384799366 C88.82522367264352 25.579993896057513, 88.46814745496268 25.948704407315656, 87.50997064763075 26.938100628664778 M87.50997064763075 26.938100628664778 C86.95093585384636 27.445801237129654, 86.39190106006197 27.953501845594527, 85.7304398240421 28.55422343884252 M87.50997064763075 26.938100628664778 C87.12931000869024 27.283806549221957, 86.74864936974973 27.629512469779133, 85.7304398240421 28.55422343884252 M85.7304398240421 28.55422343884252 C85.29124093049985 28.90447286886905, 84.85204203695761 29.25472229889558, 83.85101989342061 30.053010820048367 M85.7304398240421 28.55422343884252 C85.00353359131263 29.13391181565703, 84.27662735858317 29.713600192471535, 83.85101989342061 30.053010820048367 M83.85101989342061 30.053010820048367 C83.40457068316364 30.364434462648802, 82.95812147290668 30.675858105249233, 81.87943379539558 31.428303933444013 M83.85101989342061 30.053010820048367 C83.37776656658826 30.383131854040286, 82.9045132397559 30.713252888032205, 81.87943379539558 31.428303933444013 M81.87943379539558 31.428303933444013 C81.38441992319048 31.728384251799156, 80.88940605098539 32.0284645701543, 79.82378320014766 32.674451404627106 M81.87943379539558 31.428303933444013 C81.36949066848024 31.737434453738544, 80.8595475415649 32.046564974033075, 79.82378320014766 32.674451404627106 M79.82378320014766 32.674451404627106 C79.37142637811367 32.91044566893386, 78.91906955607969 33.14643993324062, 77.69251521690843 33.78633254634072 M79.82378320014766 32.674451404627106 C78.98223112449597 33.11348858345477, 78.14067904884428 33.55252576228242, 77.69251521690843 33.78633254634072 M77.69251521690843 33.78633254634072 C77.15564539438722 34.02398889109341, 76.61877557186601 34.2616452358461, 75.49438768297654 34.75937840047581 M77.69251521690843 33.78633254634072 C76.95385292855484 34.11331642975659, 76.21519064020126 34.44030031317246, 75.49438768297654 34.75937840047581 M75.49438768297654 34.75937840047581 C74.79497219509388 35.01676976534253, 74.09555670721122 35.274161130209244, 73.2384331758858 35.58959051290007 M75.49438768297654 34.75937840047581 C74.83622368668676 35.00158883511174, 74.17805969039698 35.24379926974767, 73.2384331758858 35.58959051290007 M73.2384331758858 35.58959051290007 C72.45628396403268 35.82172829339308, 71.67413475217957 36.0538660738861, 70.93392189660656 36.2735573639636 M73.2384331758858 35.58959051290007 C72.45724198315949 35.82144395834499, 71.67605079043318 36.05329740378991, 70.93392189660656 36.2735573639636 M70.93392189660656 36.2735573639636 C70.17627404298263 36.446485542438964, 69.41862618935868 36.61941372091433, 68.59032357630147 36.80846838716495 M70.93392189660656 36.2735573639636 C70.40666029029214 36.39390138490133, 69.87939868397771 36.51424540583907, 68.59032357630147 36.80846838716495 M68.59032357630147 36.80846838716495 C68.01115366090487 36.902104087556495, 67.43198374550828 36.99573978794804, 66.217268563169 37.192125518371725 M68.59032357630147 36.80846838716495 C68.07610571788388 36.891603142694855, 67.56188785946628 36.97473789822476, 66.217268563169 37.192125518371725 M66.217268563169 37.192125518371725 C65.62640583727955 37.249125334921885, 65.0355431113901 37.306125151472045, 63.82450824927673 37.42295222813761 M66.217268563169 37.192125518371725 C65.43208165661727 37.267871554921356, 64.64689475006556 37.34361759147099, 63.82450824927673 37.42295222813761 M63.82450824927673 37.42295222813761 C63.27558774999453 37.44055504014066, 62.726667250712325 37.4581578521437, 61.42187500000001 37.5 M63.82450824927673 37.42295222813761 C63.07297901075098 37.44705230805421, 62.32144977222522 37.47115238797081, 61.42187500000001 37.5 M61.42187500000001 37.5 C61.42187500000001 37.5, 61.421875 37.5, 61.421875 37.5 M61.42187500000001 37.5 C61.42187500000001 37.5, 61.421875 37.5, 61.421875 37.5 M61.421875 37.5 C25.704822280372703 37.5, -10.012230439254594 37.5, -61.42187499999999 37.5 M61.421875 37.5 C15.741189458140383 37.5, -29.939496083719234 37.5, -61.42187499999999 37.5 M-61.42187499999999 37.5 C-61.906792012040654 37.48444965525756, -62.39170902408132 37.46889931051512, -63.82450824927672 37.42295222813761 M-61.42187499999999 37.5 C-61.97859662653865 37.48214702102981, -62.535318253077314 37.46429404205963, -63.82450824927672 37.42295222813761 M-63.82450824927672 37.42295222813761 C-64.67216501877216 37.3411797990408, -65.5198217882676 37.25940736994399, -66.21726856316899 37.192125518371725 M-63.82450824927672 37.42295222813761 C-64.4111871828376 37.36635601700164, -64.99786611639848 37.30975980586567, -66.21726856316899 37.192125518371725 M-66.21726856316899 37.192125518371725 C-67.16398675727271 37.03906746265828, -68.11070495137642 36.886009406944844, -68.59032357630146 36.80846838716495 M-66.21726856316899 37.192125518371725 C-66.71846271302111 37.11109633504232, -67.21965686287324 37.030067151712906, -68.59032357630146 36.80846838716495 M-68.59032357630146 36.80846838716495 C-69.42461918165533 36.618045859530554, -70.25891478700919 36.42762333189615, -70.93392189660652 36.273557363963604 M-68.59032357630146 36.80846838716495 C-69.16611614494472 36.67704749076978, -69.741908713588 36.54562659437461, -70.93392189660652 36.273557363963604 M-70.93392189660652 36.273557363963604 C-71.43202803589693 36.12572207643469, -71.93013417518735 35.97788678890578, -73.23843317588576 35.58959051290008 M-70.93392189660652 36.273557363963604 C-71.64479882044357 36.062572824437886, -72.3556757442806 35.851588284912175, -73.23843317588576 35.58959051290008 M-73.23843317588576 35.58959051290008 C-74.07967229396402 35.28000674111812, -74.92091141204229 34.970422969336155, -75.49438768297654 34.75937840047582 M-73.23843317588576 35.58959051290008 C-73.90448826476701 35.34447608324603, -74.57054335364828 35.099361653591984, -75.49438768297654 34.75937840047582 M-75.49438768297654 34.75937840047582 C-76.02048427770399 34.52649104409097, -76.54658087243145 34.293603687706124, -77.69251521690842 33.786332546340724 M-75.49438768297654 34.75937840047582 C-76.11169517087819 34.48611468735776, -76.72900265877986 34.21285097423971, -77.69251521690842 33.786332546340724 M-77.69251521690842 33.786332546340724 C-78.44580148616095 33.393343582174566, -79.19908775541347 33.0003546180084, -79.82378320014766 32.67445140462711 M-77.69251521690842 33.786332546340724 C-78.24034111605464 33.50053212565538, -78.78816701520086 33.214731704970035, -79.82378320014766 32.67445140462711 M-79.82378320014766 32.67445140462711 C-80.56997500697143 32.222105546220746, -81.31616681379519 31.769759687814382, -81.87943379539556 31.428303933444038 M-79.82378320014766 32.67445140462711 C-80.5591472010663 32.228669425791686, -81.29451120198495 31.78288744695626, -81.87943379539556 31.428303933444038 M-81.87943379539556 31.428303933444038 C-82.46038703542257 31.02305610226162, -83.04134027544958 30.617808271079205, -83.8510198934206 30.053010820048378 M-81.87943379539556 31.428303933444038 C-82.63166095168313 30.90358283260659, -83.38388810797072 30.378861731769142, -83.8510198934206 30.053010820048378 M-83.8510198934206 30.053010820048378 C-84.29627998398946 29.697927746688336, -84.74154007455833 29.342844673328297, -85.73043982404207 28.55422343884255 M-83.8510198934206 30.053010820048378 C-84.34958253520719 29.655420380532657, -84.8481451769938 29.257829941016933, -85.73043982404207 28.55422343884255 M-85.73043982404207 28.55422343884255 C-86.4383020366333 27.911361706375008, -87.14616424922454 27.268499973907467, -87.50997064763072 26.938100628664802 M-85.73043982404207 28.55422343884255 C-86.28082843706015 28.05437506298422, -86.83121705007824 27.554526687125897, -87.50997064763072 26.938100628664802 M-87.50997064763072 26.938100628664802 C-88.06268624048093 26.367376400252855, -88.61540183333115 25.79665217184091, -89.18229989032433 25.21128338479938 M-87.50997064763072 26.938100628664802 C-87.89554606659485 26.539962352253728, -88.28112148555896 26.14182407584265, -89.18229989032433 25.21128338479938 M-89.18229989032433 25.21128338479938 C-89.70979784644672 24.591654270054022, -90.23729580256911 23.972025155308664, -90.74055559255112 23.380867569702513 M-89.18229989032433 25.21128338479938 C-89.57381452840231 24.75138801309897, -89.9653291664803 24.291492641398563, -90.74055559255112 23.380867569702513 M-90.74055559255112 23.380867569702513 C-91.3053593107028 22.62408204205651, -91.87016302885448 21.867296514410512, -92.17833454738584 21.454374754581377 M-90.74055559255112 23.380867569702513 C-91.13123153889933 22.8573973929068, -91.52190748524755 22.333927216111086, -92.17833454738584 21.454374754581377 M-92.17833454738584 21.454374754581377 C-92.55860025868621 20.870184506382994, -92.93886596998658 20.28599425818461, -93.48972861270047 19.43972131164471 M-92.17833454738584 21.454374754581377 C-92.59876693556052 20.808477704441096, -93.0191993237352 20.162580654300815, -93.48972861270047 19.43972131164471 M-93.48972861270047 19.43972131164471 C-93.92049006146921 18.67486074002923, -94.35125151023793 17.91000016841375, -94.66934898898751 17.345185884031327 M-93.48972861270047 19.43972131164471 C-93.82318430038322 18.847636972114156, -94.15663998806596 18.2555526325836, -94.66934898898751 17.345185884031327 M-94.66934898898751 17.345185884031327 C-94.95110343020313 16.760116758267788, -95.23285787141876 16.175047632504246, -95.71234836309296 15.179375367089781 M-94.66934898898751 17.345185884031327 C-94.87978661012546 16.908207661094565, -95.09022423126343 16.4712294381578, -95.71234836309296 15.179375367089781 M-95.71234836309296 15.179375367089781 C-95.99200370336484 14.488621269850023, -96.27165904363675 13.797867172610266, -96.614440826866 12.951189540799058 M-95.71234836309296 15.179375367089781 C-95.90663968024377 14.699472057360207, -96.10093099739457 14.219568747630635, -96.614440826866 12.951189540799058 M-96.614440826866 12.951189540799058 C-96.79966516678623 12.393323340450175, -96.98488950670645 11.83545714010129, -97.37191948887477 10.669784498663716 M-96.614440826866 12.951189540799058 C-96.83844289786724 12.276530992826572, -97.06244496886848 11.601872444854086, -97.37191948887477 10.669784498663716 M-97.37191948887477 10.669784498663716 C-97.52518410773207 10.085320081654828, -97.67844872658938 9.500855664645941, -97.98167170681839 8.344535023361798 M-97.37191948887477 10.669784498663716 C-97.57218920413834 9.906069276920055, -97.77245891940193 9.142354055176396, -97.98167170681839 8.344535023361798 M-97.98167170681839 8.344535023361798 C-98.15657225568664 7.446457670167384, -98.3314728045549 6.548380316972971, -98.44119187804188 5.984996063751739 M-97.98167170681839 8.344535023361798 C-98.10169656121549 7.728232763294635, -98.22172141561259 7.1119305032274704, -98.44119187804188 5.984996063751739 M-98.44119187804188 5.984996063751739 C-98.53875195543691 5.2283393688921675, -98.63631203283195 4.4716826740325955, -98.74859173559493 3.6008634715380943 M-98.44119187804188 5.984996063751739 C-98.56308505800642 5.039616630477648, -98.68497823797097 4.094237197203558, -98.74859173559493 3.6008634715380943 M-98.74859173559493 3.6008634715380943 C-98.7855465901063 3.0252617831016253, -98.8225014446177 2.4496600946651563, -98.9026081075258 1.2019341589370733 M-98.74859173559493 3.6008634715380943 C-98.80557072397761 2.713369734866129, -98.8625497123603 1.8258759981941635, -98.9026081075258 1.2019341589370733 M-98.9026081075258 1.2019341589370733 C-98.9026081075258 0.5612219269476922, -98.9026081075258 -0.07949030504168886, -98.9026081075258 -1.2019341589370551 M-98.9026081075258 1.2019341589370733 C-98.9026081075258 0.35413510212610255, -98.9026081075258 -0.49366395468486823, -98.9026081075258 -1.2019341589370551 M-98.9026081075258 -1.2019341589370551 C-98.8517943699098 -1.9933991384169971, -98.8009806322938 -2.784864117896939, -98.74859173559494 -3.6008634715380428 M-98.9026081075258 -1.2019341589370551 C-98.84682930392223 -2.0707340489023527, -98.79105050031869 -2.9395339388676502, -98.74859173559494 -3.6008634715380428 M-98.74859173559494 -3.6008634715380428 C-98.64411213609827 -4.411186613403612, -98.53963253660162 -5.2215097552691825, -98.44119187804188 -5.984996063751721 M-98.74859173559494 -3.6008634715380428 C-98.66374359133509 -4.258928923256163, -98.57889544707525 -4.916994374974283, -98.44119187804188 -5.984996063751721 M-98.44119187804188 -5.984996063751721 C-98.2742808925058 -6.842048697830185, -98.10736990696972 -7.699101331908649, -97.98167170681839 -8.34453502336178 M-98.44119187804188 -5.984996063751721 C-98.26245814371458 -6.902756014134243, -98.0837244093873 -7.8205159645167655, -97.98167170681839 -8.34453502336178 M-97.98167170681839 -8.34453502336178 C-97.79431450546356 -9.059009233252462, -97.60695730410873 -9.773483443143142, -97.37191948887478 -10.669784498663699 M-97.98167170681839 -8.34453502336178 C-97.80663983292675 -9.012007417804595, -97.63160795903512 -9.67947981224741, -97.37191948887478 -10.669784498663699 M-97.37191948887478 -10.669784498663699 C-97.13958816314323 -11.36952943479739, -96.90725683741168 -12.069274370931078, -96.61444082686603 -12.95118954079901 M-97.37191948887478 -10.669784498663699 C-97.15321540000481 -11.328486368575648, -96.93451131113484 -11.987188238487597, -96.61444082686603 -12.95118954079901 M-96.61444082686603 -12.95118954079901 C-96.2900672456715 -13.752398557686059, -95.96569366447697 -14.553607574573107, -95.71234836309297 -15.179375367089763 M-96.61444082686603 -12.95118954079901 C-96.42475408721239 -13.419719455087128, -96.23506734755874 -13.888249369375247, -95.71234836309297 -15.179375367089763 M-95.71234836309297 -15.179375367089763 C-95.33688835580342 -15.959026105783717, -94.96142834851388 -16.738676844477673, -94.66934898898751 -17.34518588403131 M-95.71234836309297 -15.179375367089763 C-95.49771697454047 -15.625062037795075, -95.28308558598796 -16.070748708500386, -94.66934898898751 -17.34518588403131 M-94.66934898898751 -17.34518588403131 C-94.26422080796372 -18.06453199311581, -93.85909262693995 -18.78387810220031, -93.48972861270047 -19.439721311644696 M-94.66934898898751 -17.34518588403131 C-94.32343234780451 -17.95939590830994, -93.9775157066215 -18.573605932588567, -93.48972861270047 -19.439721311644696 M-93.48972861270047 -19.439721311644696 C-93.03482901739696 -20.138569247675928, -92.57992942209343 -20.837417183707156, -92.17833454738584 -21.454374754581362 M-93.48972861270047 -19.439721311644696 C-93.06886828449086 -20.08627579259664, -92.64800795628123 -20.732830273548586, -92.17833454738584 -21.454374754581362 M-92.17833454738584 -21.454374754581362 C-91.75153697841618 -22.02624461494229, -91.32473940944654 -22.598114475303216, -90.74055559255112 -23.380867569702502 M-92.17833454738584 -21.454374754581362 C-91.74882466664239 -22.02987886562249, -91.31931478589894 -22.605382976663613, -90.74055559255112 -23.380867569702502 M-90.74055559255112 -23.380867569702502 C-90.19971263466526 -24.016172482871344, -89.65886967677942 -24.651477396040185, -89.18229989032434 -25.211283384799366 M-90.74055559255112 -23.380867569702502 C-90.23088109576373 -23.979560234929398, -89.72120659897635 -24.578252900156297, -89.18229989032434 -25.211283384799366 M-89.18229989032434 -25.211283384799366 C-88.66970126522975 -25.740583550339334, -88.15710264013515 -26.269883715879306, -87.50997064763075 -26.938100628664763 M-89.18229989032434 -25.211283384799366 C-88.84237103793548 -25.56228783356868, -88.50244218554661 -25.913292282337988, -87.50997064763075 -26.938100628664763 M-87.50997064763075 -26.938100628664763 C-86.86042473418905 -27.528001041209414, -86.21087882074735 -28.117901453754065, -85.7304398240421 -28.554223438842516 M-87.50997064763075 -26.938100628664763 C-86.92591943035758 -27.46852049104386, -86.34186821308441 -27.998940353422956, -85.7304398240421 -28.554223438842516 M-85.7304398240421 -28.554223438842516 C-85.10395668399413 -29.05382707161426, -84.47747354394615 -29.55343070438601, -83.85101989342061 -30.053010820048364 M-85.7304398240421 -28.554223438842516 C-85.28884636252477 -28.90638247310705, -84.84725290100745 -29.258541507371582, -83.85101989342061 -30.053010820048364 M-83.85101989342061 -30.053010820048364 C-83.33574928698786 -30.412441289390806, -82.82047868055511 -30.771871758733244, -81.8794337953956 -31.42830393344401 M-83.85101989342061 -30.053010820048364 C-83.34887332737122 -30.403286526949927, -82.84672676132182 -30.75356223385149, -81.8794337953956 -31.42830393344401 M-81.8794337953956 -31.42830393344401 C-81.36953628343214 -31.737406801686646, -80.85963877146868 -32.04650966992928, -79.82378320014767 -32.6744514046271 M-81.8794337953956 -31.42830393344401 C-81.32632632779979 -31.763600930720862, -80.77321886020397 -32.09889792799772, -79.82378320014767 -32.6744514046271 M-79.82378320014767 -32.6744514046271 C-79.04399922010336 -33.08126420754074, -78.26421524005906 -33.48807701045438, -77.69251521690845 -33.78633254634072 M-79.82378320014767 -32.6744514046271 C-79.3426044736192 -32.92548203804732, -78.86142574709073 -33.17651267146754, -77.69251521690845 -33.78633254634072 M-77.69251521690845 -33.78633254634072 C-77.0203598167479 -34.08387580321027, -76.34820441658735 -34.38141906007983, -75.49438768297655 -34.75937840047581 M-77.69251521690845 -33.78633254634072 C-76.92269308173057 -34.127109969621685, -76.15287094655268 -34.467887392902654, -75.49438768297655 -34.75937840047581 M-75.49438768297655 -34.75937840047581 C-74.91520718636308 -34.97252217711539, -74.3360266897496 -35.18566595375497, -73.2384331758858 -35.58959051290007 M-75.49438768297655 -34.75937840047581 C-74.7857198359938 -35.020174719019224, -74.07705198901107 -35.280971037562644, -73.2384331758858 -35.58959051290007 M-73.2384331758858 -35.58959051290007 C-72.51417372232733 -35.80454691700077, -71.78991426876885 -36.019503321101475, -70.93392189660656 -36.27355736396359 M-73.2384331758858 -35.58959051290007 C-72.41099263089183 -35.83517052333023, -71.58355208589784 -36.08075053376039, -70.93392189660656 -36.27355736396359 M-70.93392189660656 -36.27355736396359 C-70.0968257873616 -36.464619088336136, -69.25972967811663 -36.65568081270869, -68.59032357630147 -36.80846838716494 M-70.93392189660656 -36.27355736396359 C-70.25041955355988 -36.42956231349437, -69.56691721051321 -36.585567263025155, -68.59032357630147 -36.80846838716494 M-68.59032357630147 -36.80846838716494 C-68.05493642749308 -36.89502562939494, -67.51954927868468 -36.98158287162493, -66.217268563169 -37.192125518371725 M-68.59032357630147 -36.80846838716494 C-67.90074086591684 -36.91995477198614, -67.21115815553223 -37.03144115680734, -66.217268563169 -37.192125518371725 M-66.217268563169 -37.192125518371725 C-65.670193798297 -37.24490116298526, -65.123119033425 -37.2976768075988, -63.82450824927674 -37.42295222813761 M-66.217268563169 -37.192125518371725 C-65.34845891019141 -37.27593854069799, -64.47964925721382 -37.35975156302426, -63.82450824927674 -37.42295222813761 M-63.82450824927674 -37.42295222813761 C-63.05985910561507 -37.447473037875575, -62.29520996195339 -37.47199384761353, -61.421875000000014 -37.5 M-63.82450824927674 -37.42295222813761 C-63.16805759934928 -37.44400332277711, -62.51160694942182 -37.4650544174166, -61.421875000000014 -37.5 M-61.421875000000014 -37.5 C-61.421875000000014 -37.5, -61.42187500000001 -37.5, -61.421875 -37.5 M-61.421875000000014 -37.5 C-61.42187500000001 -37.5, -61.42187500000001 -37.5, -61.421875 -37.5" stroke="#B83280" stroke-width="2.5" fill="none" stroke-dasharray="0 0" style="fill:#FDECF3 !important;stroke:#B83280 !important;stroke-width:2.5px !important"/></g><g class="label" style="color:#702459 !important" transform="translate(-82.046875, -30)"><rect/><foreignObject width="164.09375" height="60"><div style="color: rgb(112, 36, 89) !important; display: table-cell; white-space: nowrap; line-height: 1.5; max-width: 200px; text-align: center;" xmlns="http://www.w3.org/1999/xhtml"><span style="color:#702459 !important" class="nodeLabel"><p>Attribute</p></span></div></foreignObject></g></g></g></g></g><defs><filter id="my-svg-drop-shadow" height="130%" width="130%"><feDropShadow dx="4" dy="4" stdDeviation="0" flood-opacity="0.06" flood-color="#000000"/></filter></defs><defs><filter id="my-svg-drop-shadow-small" height="150%" width="150%"><feDropShadow dx="2" dy="2" stdDeviation="0" flood-opacity="0.06" flood-color="#000000"/></filter></defs><linearGradient id="my-svg-gradient" gradientUnits="objectBoundingBox" x1="0%" y1="0%" x2="100%" y2="0%"><stop offset="0%" stop-color="hsl(0, 0%, 83.3333333333%)" stop-opacity="1"/><stop offset="100%" stop-color="hsl(0, 0%, 88.9215686275%)" stop-opacity="1"/></linearGradient></svg>