<svg id="my-svg" width="565.2896118164062" xmlns="http://www.w3.org/2000/svg" xmlns:xlink="http://www.w3.org/1999/xlink" class="flowchart" style="background-color: white;" viewBox="0 0 565.2896118164062 106" role="graphics-document document" aria-roledescription="flowchart-v2" height="106"><style>#my-svg{font-family:"trebuchet ms",verdana,arial,sans-serif;font-size:40px;fill:#000000;}@keyframes edge-animation-frame{from{stroke-dashoffset:0;}}@keyframes dash{to{stroke-dashoffset:0;}}#my-svg .edge-animation-slow{stroke-dasharray:9,5!important;stroke-dashoffset:900;animation:dash 50s linear infinite;stroke-linecap:round;}#my-svg .edge-animation-fast{stroke-dasharray:9,5!important;stroke-dashoffset:900;animation:dash 20s linear infinite;stroke-linecap:round;}#my-svg .error-icon{fill:#552222;}#my-svg .error-text{fill:#552222;stroke:#552222;}#my-svg .edge-thickness-normal{stroke-width:1px;}#my-svg .edge-thickness-thick{stroke-width:3.5px;}#my-svg .edge-pattern-solid{stroke-dasharray:0;}#my-svg .edge-thickness-invisible{stroke-width:0;fill:none;}#my-svg .edge-pattern-dashed{stroke-dasharray:3;}#my-svg .edge-pattern-dotted{stroke-dasharray:2;}#my-svg .marker{fill:#666;stroke:#666;}#my-svg .marker.cross{stroke:#666;}#my-svg svg{font-family:"trebuchet ms",verdana,arial,sans-serif;font-size:40px;}#my-svg p{margin:0;}#my-svg .label{font-family:"trebuchet ms",verdana,arial,sans-serif;color:#000000;}#my-svg .cluster-label text{fill:#333;}#my-svg .cluster-label span{color:#333;}#my-svg .cluster-label span p{background-color:transparent;}#my-svg .label text,#my-svg span{fill:#000000;color:#000000;}#my-svg .node rect,#my-svg .node circle,#my-svg .node ellipse,#my-svg .node polygon,#my-svg .node path{fill:#eee;stroke:#999;stroke-width:1px;}#my-svg .rough-node .label text,#my-svg .node .label text,#my-svg .image-shape .label,#my-svg .icon-shape .label{text-anchor:middle;}#my-svg .node .katex path{fill:#000;stroke:#000;stroke-width:1px;}#my-svg .rough-node .label,#my-svg .node .label,#my-svg .image-shape .label,#my-svg .icon-shape .label{text-align:center;}#my-svg .node.clickable{cursor:pointer;}#my-svg .root .anchor path{fill:#666!important;stroke-width:0;stroke:#666;}#my-svg .arrowheadPath{fill:#333333;}#my-svg .edgePath .path{stroke:#666;stroke-width:1px;}#my-svg .flowchart-link{stroke:#666;fill:none;}#my-svg .edgeLabel{background-color:white;text-align:center;}#my-svg .edgeLabel p{background-color:white;}#my-svg .edgeLabel rect{opacity:0.5;background-color:white;fill:white;}#my-svg .labelBkg{background-color:rgba(255, 255, 255, 0.5);}#my-svg .cluster rect{fill:hsl(0, 0%, 98.9215686275%);stroke:#707070;stroke-width:1px;}#my-svg .cluster text{fill:#333;}#my-svg .cluster span{color:#333;}#my-svg div.mermaidTooltip{position:absolute;text-align:center;max-width:200px;padding:2px;font-family:"trebuchet ms",verdana,arial,sans-serif;font-size:12px;background:hsl(-160, 0%, 93.3333333333%);border:1px solid #707070;border-radius:2px;pointer-events:none;z-index:100;}#my-svg .flowchartTitleText{text-anchor:middle;font-size:18px;fill:#000000;}#my-svg rect.text{fill:none;stroke-width:0;}#my-svg .icon-shape,#my-svg .image-shape{background-color:white;text-align:center;}#my-svg .icon-shape p,#my-svg .image-shape p{background-color:white;padding:2px;}#my-svg .icon-shape .label rect,#my-svg .image-shape .label rect{opacity:0.5;background-color:white;fill:white;}#my-svg .label-icon{display:inline-block;height:1em;overflow:visible;vertical-align:-0.125em;}#my-svg .node .label-icon path{fill:currentColor;stroke:revert;stroke-width:revert;}#my-svg .node .neo-node{stroke:#999;}#my-svg [data-look="neo"].node rect,#my-svg [data-look="neo"].cluster rect,#my-svg [data-look="neo"].node polygon{stroke:url(#my-svg-gradient);filter:drop-shadow( 1px 2px 2px rgba(185,185,185,1));}#my-svg [data-look="neo"].node path{stroke:url(#my-svg-gradient);stroke-width:1px;}#my-svg [data-look="neo"].node .outer-path{filter:drop-shadow( 1px 2px 2px rgba(185,185,185,1));}#my-svg [data-look="neo"].node .neo-line path{stroke:#999;filter:none;}#my-svg [data-look="neo"].node circle{stroke:url(#my-svg-gradient);filter:drop-shadow( 1px 2px 2px rgba(185,185,185,1));}#my-svg [data-look="neo"].node circle .state-start{fill:#000000;}#my-svg [data-look="neo"].icon-shape .icon{fill:url(#my-svg-gradient);filter:drop-shadow( 1px 2px 2px rgba(185,185,185,1));}#my-svg [data-look="neo"].icon-shape .icon-neo path{stroke:url(#my-svg-gradient);filter:drop-shadow( 1px 2px 2px rgba(185,185,185,1));}#my-svg :root{--mermaid-font-family:"trebuchet ms",verdana,arial,sans-serif;}#my-svg .entryPoint&gt;*{fill:#102A43!important;stroke:#102A43!important;stroke-width:2px!important;color:#102A43!important;}#my-svg .entryPoint span{fill:#102A43!important;stroke:#102A43!important;stroke-width:2px!important;color:#102A43!important;}#my-svg .entryPoint tspan{fill:#102A43!important;}#my-svg .geometryNode&gt;*{fill:#EDF2F7!important;stroke:#2B6CB0!important;stroke-width:2.5px!important;color:#1A365D!important;}#my-svg .geometryNode span{fill:#EDF2F7!important;stroke:#2B6CB0!important;stroke-width:2.5px!important;color:#1A365D!important;}#my-svg .geometryNode tspan{fill:#1A365D!important;}#my-svg .attributeNode&gt;*{fill:#FDECF3!important;stroke:#B83280!important;stroke-width:2.5px!important;color:#702459!important;}#my-svg .attributeNode span{fill:#FDECF3!important;stroke:#B83280!important;stroke-width:2.5px!important;color:#702459!important;}#my-svg .attributeNode tspan{fill:#702459!important;}</style><g><marker id="my-svg_flowchart-v2-pointEnd" class="marker flowchart-v2" viewBox="0 0 10 10" refX="5" refY="5" markerUnits="userSpaceOnUse" markerWidth="8" markerHeight="8" orient="auto"><path d="M 0 0 L 10 5 L 0 10 z" class="arrowMarkerPath" style="stroke-width: 1; stroke-dasharray: 1, 0;"/></marker><marker id="my-svg_flowchart-v2-pointStart" class="marker flowchart-v2" viewBox="0 0 10 10" refX="4.5" refY="5" markerUnits="userSpaceOnUse" markerWidth="8" markerHeight="8" orient="auto"><path d="M 0 5 L 10 10 L 10 0 z" class="arrowMarkerPath" style="stroke-width: 1; stroke-dasharray: 1, 0;"/></marker><marker id="my-svg_flowchart-v2-pointEnd-margin" class="marker flowchart-v2" viewBox="0 0 11.5 14" refX="11.5" refY="7" markerUnits="userSpaceOnUse" markerWidth="10.5" markerHeight="14" orient="auto"><path d="M 0 0 L 11.5 7 L 0 14 z" class="arrowMarkerPath" style="stroke-width: 0; stroke-dasharray: 1, 0;"/></marker><marker id="my-svg_flowchart-v2-pointStart-margin" class="marker flowchart-v2" viewBox="0 0 11.5 14" refX="1" refY="7" markerUnits="userSpaceOnUse" markerWidth="11.5" markerHeight="14" orient="auto"><polygon points="0,7 11.5,14 11.5,0" class="arrowMarkerPath" style="stroke-width: 0; stroke-dasharray: 1, 0;"/></marker><marker id="my-svg_flowchart-v2-circleEnd" class="marker flowchart-v2" viewBox="0 0 10 10" refX="11" refY="5" markerUnits="userSpaceOnUse" markerWidth="11" markerHeight="11" orient="auto"><circle cx="5" cy="5" r="5" class="arrowMarkerPath" style="stroke-width: 1; stroke-dasharray: 1, 0;"/></marker><marker id="my-svg_flowchart-v2-circleStart" class="marker flowchart-v2" viewBox="0 0 10 10" refX="-1" refY="5" markerUnits="userSpaceOnUse" markerWidth="11" markerHeight="11" orient="auto"><circle cx="5" cy="5" r="5" class="arrowMarkerPath" style="stroke-width: 1; stroke-dasharray: 1, 0;"/></marker><marker id="my-svg_flowchart-v2-circleEnd-margin" class="marker flowchart-v2" viewBox="0 0 10 10" refY="5" refX="12.25" markerUnits="userSpaceOnUse" markerWidth="14" markerHeight="14" orient="auto"><circle cx="5" cy="5" r="5" class="arrowMarkerPath" style="stroke-width: 0; stroke-dasharray: 1, 0;"/></marker><marker id="my-svg_flowchart-v2-circleStart-margin" class="marker flowchart-v2" viewBox="0 0 10 10" refX="-2" refY="5" markerUnits="userSpaceOnUse" markerWidth="14" markerHeight="14" orient="auto"><circle cx="5" cy="5" r="5" class="arrowMarkerPath" style="stroke-width: 0; stroke-dasharray: 1, 0;"/></marker><marker id="my-svg_flowchart-v2-crossEnd" class="marker cross flowchart-v2" viewBox="0 0 11 11" refX="12" refY="5.2" markerUnits="userSpaceOnUse" markerWidth="11" markerHeight="11" orient="auto"><path d="M 1,1 l 9,9 M 10,1 l -9,9" class="arrowMarkerPath" style="stroke-width: 2; stroke-dasharray: 1, 0;"/></marker><marker id="my-svg_flowchart-v2-crossStart" class="marker cross flowchart-v2" viewBox="0 0 11 11" refX="-1" refY="5.2" markerUnits="userSpaceOnUse" markerWidth="11" markerHeight="11" orient="auto"><path d="M 1,1 l 9,9 M 10,1 l -9,9" class="arrowMarkerPath" style="stroke-width: 2; stroke-dasharray: 1, 0;"/></marker><marker id="my-svg_flowchart-v2-crossEnd-margin" class="marker cross flowchart-v2" viewBox="0 0 15 15" refX="17.7" refY="7.5" markerUnits="userSpaceOnUse" markerWidth="12" markerHeight="12" orient="auto"><path d="M 1,1 L 14,14 M 1,14 L 14,1" class="arrowMarkerPath" style="stroke-width: 2.5;"/></marker><marker id="my-svg_flowchart-v2-crossStart-margin" class="marker cross flowchart-v2" viewBox="0 0 15 15" refX="-3.5" refY="7.5" markerUnits="userSpaceOnUse" markerWidth="12" markerHeight="12" orient="auto"><path d="M 1,1 L 14,14 M 1,14 L 14,1" class="arrowMarkerPath" style="stroke-width: 2.5; stroke-dasharray: 1, 0;"/></marker><g class="root"><g class="clusters"/><g class="edgePaths"><path d="M23,53L27.167,53C31.333,53,39.667,53,47.333,53C55,53,62,53,65.5,53L69,53" id="my-svg-L_Entry_Geom_0" class="edge-thickness-normal edge-pattern-solid edge-thickness-normal edge-pattern-solid flowchart-link" style=";" data-edge="true" data-et="edge" data-id="L_Entry_Geom_0" data-points="W3sieCI6MjMsInkiOjUzfSx7IngiOjQ4LCJ5Ijo1M30seyJ4Ijo3MywieSI6NTN9XQ==" data-look="classic" marker-end="url(#my-svg_flowchart-v2-pointEnd)"/><path d="M309.484,53L313.651,53C317.818,53,326.151,53,333.901,53.07C341.651,53.141,348.818,53.281,352.402,53.351L355.985,53.422" id="my-svg-L_Geom_Attr_0" class="edge-thickness-normal edge-pattern-dotted edge-thickness-normal edge-pattern-solid flowchart-link" style=";" data-edge="true" data-et="edge" data-id="L_Geom_Attr_0" data-points="W3sieCI6MzA5LjQ4NDM3NSwieSI6NTN9LHsieCI6MzM0LjQ4NDM3NSwieSI6NTN9LHsieCI6MzU5Ljk4NDM3NDk5OTk5OTksInkiOjUzLjUwMDAwMDAwMDAwMDAxfV0=" data-look="classic" marker-end="url(#my-svg_flowchart-v2-pointEnd)"/></g><g class="edgeLabels"><g class="edgeLabel"><g class="label" data-id="L_Entry_Geom_0" transform="translate(0, 0)"><foreignObject width="0" height="0"><div xmlns="http://www.w3.org/1999/xhtml" class="labelBkg" style="display: table-cell; white-space: nowrap; line-height: 1.5; max-width: 200px; text-align: center;"><span class="edgeLabel"></span></div></foreignObject></g></g><g class="edgeLabel"><g class="label" data-id="L_Geom_Attr_0" transform="translate(0, 0)"><foreignObject width="0" height="0"><div xmlns="http://www.w3.org/1999/xhtml" class="labelBkg" style="display: table-cell; white-space: nowrap; line-height: 1.5; max-width: 200px; text-align: center;"><span class="edgeLabel"></span></div></foreignObject></g></g></g><g class="nodes"><g class="node default entryPoint" id="my-svg-flowchart-Entry-0" data-look="classic" transform="translate(15.5, 53)"><circle class="basic label-container" style="fill:#102A43 !important;stroke:#102A43 !important;stroke-width:2px !important" r="7.5" cx="0" cy="0"/><g class="label" style="color:#102A43 !important" transform="translate(0, 0)"><rect/><foreignObject width="0" height="0"><div style="color: rgb(16, 42, 67) !important; display: table-cell; white-space: nowrap; line-height: 1.5; max-width: 200px; text-align: center;" xmlns="http://www.w3.org/1999/xhtml"><span style="color:#102A43 !important" class="nodeLabel"></span></div></foreignObject></g></g><g class="node default geometryNode" id="my-svg-flowchart-Geom-1" data-look="classic" transform="translate(191.2421875, 53)"><rect class="basic label-container" style="fill:#EDF2F7 !important;stroke:#2B6CB0 !important;stroke-width:2.5px !important" x="-118.2421875" y="-45" width="236.484375" height="90"/><g class="label" style="color:#1A365D !important" transform="translate(-88.2421875, -30)"><rect/><foreignObject width="176.484375" height="60"><div style="color: rgb(26, 54, 93) !important; display: table-cell; white-space: nowrap; line-height: 1.5; max-width: 200px; text-align: center;" xmlns="http://www.w3.org/1999/xhtml"><span style="color:#1A365D !important" class="nodeLabel"><p>Geometry</p></span></div></foreignObject></g></g><g class="node default attributeNode" id="my-svg-flowchart-Attr-2" data-look="classic" transform="translate(458.3869857788086, 53)"><g class="basic label-container outer-path"><path d="M-61.421875 -37.5 C-35.77973133205346 -37.5, -10.13758766410691 -37.5, 61.421875 -37.5 C61.421875 -37.5, 61.421875 -37.5, 61.421875 -37.5 C62.06733356727324 -37.479301400056436, 62.71279213454648 -37.458602800112864, 63.82450824927673 -37.42295222813761 C64.40618795210176 -37.366838286778275, 64.9878676549268 -37.31072434541894, 66.21726856316897 -37.19212551837173 C66.99173091127096 -37.066916451975814, 67.76619325937294 -36.941707385579896, 68.59032357630146 -36.80846838716496 C69.08442973533988 -36.69569188070845, 69.57853589437832 -36.58291537425195, 70.93392189660652 -36.273557363963604 C71.7414749374911 -36.03387986036147, 72.5490279783757 -35.794202356759335, 73.23843317588577 -35.589590512900074 C73.99462650572032 -35.311304377346445, 74.75081983555486 -35.03301824179282, 75.49438768297652 -34.75937840047582 C76.17473159182231 -34.45821033371479, 76.8550755006681 -34.15704226695376, 77.69251521690842 -33.78633254634072 C78.3891851827437 -33.42288027140286, 79.08585514857899 -33.059427996465004, 79.82378320014766 -32.674451404627106 C80.33131462191702 -32.36678287416483, 80.83884604368637 -32.05911434370254, 81.87943379539557 -31.428303933444028 C82.56319286406497 -30.95134320659328, 83.24695193273436 -30.47438247974253, 83.8510198934206 -30.053010820048375 C84.38272084226229 -29.628993462503605, 84.91442179110398 -29.20497610495884, 85.73043982404207 -28.554223438842545 C86.15258525697573 -28.170842126008285, 86.57473068990939 -27.78746081317403, 87.50997064763074 -26.938100628664785 C87.92459296873321 -26.509969041000844, 88.33921528983568 -26.0818374533369, 89.18229989032433 -25.211283384799387 C89.56099623193158 -24.76644511351522, 89.93969257353885 -24.321606842231056, 90.74055559255112 -23.38086756970251 C91.15141804733453 -22.830349310632393, 91.56228050211793 -22.279831051562272, 92.17833454738584 -21.45437475458137 C92.44244913167167 -21.048623828422066, 92.70656371595749 -20.642872902262766, 93.48972861270047 -19.439721311644693 C93.95251808584396 -18.617991739562687, 94.41530755898745 -17.796262167480677, 94.66934898898751 -17.345185884031324 C95.02882933003157 -16.59871726420621, 95.38830967107562 -15.8522486443811, 95.71234836309296 -15.179375367089778 C96.06313477344399 -14.31292615152886, 96.41392118379503 -13.446476935967944, 96.614440826866 -12.951189540799055 C96.83367766116558 -12.290883126534595, 97.05291449546516 -11.630576712270136, 97.37191948887477 -10.669784498663727 C97.6046922799384 -9.782120961972257, 97.83746507100206 -8.894457425280788, 97.98167170681839 -8.344535023361795 C98.12267116844265 -7.6205325881679595, 98.26367063006691 -6.896530152974123, 98.44119187804188 -5.984996063751735 C98.51687214254568 -5.398034877018867, 98.59255240704948 -4.811073690286, 98.74859173559494 -3.600863471538073 C98.80651049004749 -2.6987321197624228, 98.86442924450004 -1.7966007679867728, 98.9026081075258 -1.2019341589370687 C98.9026081075258 -0.7135332686542095, 98.9026081075258 -0.22513237837135047, 98.9026081075258 1.2019341589370596 C98.84393860909027 2.115758954237145, 98.78526911065475 3.02958374953723, 98.74859173559494 3.600863471538047 C98.68488631733898 4.094950115473499, 98.62118089908303 4.589036759408952, 98.44119187804188 5.984996063751709 C98.30379888939893 6.690480022414801, 98.16640590075599 7.395963981077892, 97.98167170681839 8.344535023361786 C97.76317227753361 9.177768045476299, 97.54467284824884 10.011001067590811, 97.37191948887477 10.669784498663702 C97.1848873362239 11.233095542921445, 96.99785518357304 11.796406587179188, 96.61444082686602 12.951189540799028 C96.38399824357171 13.520387176840227, 96.1535556602774 14.089584812881428, 95.71234836309297 15.179375367089767 C95.38546771035966 15.858150036616017, 95.05858705762635 16.536924706142266, 94.66934898898751 17.345185884031313 C94.25626047484353 18.078666370641866, 93.84317196069955 18.812146857252422, 93.48972861270047 19.439721311644686 C93.21873200435903 19.85604487483565, 92.94773539601756 20.272368438026614, 92.17833454738584 21.454374754581348 C91.672604523092 22.13200691418207, 91.16687449879817 22.80963907378279, 90.74055559255112 23.380867569702502 C90.40100145533322 23.779727180456412, 90.0614473181153 24.17858679121032, 89.18229989032434 25.211283384799366 C88.7463118648866 25.661476816346436, 88.31032383944884 26.11167024789351, 87.50997064763075 26.938100628664778 C86.80601548633004 27.57741408052517, 86.10206032502933 28.216727532385562, 85.7304398240421 28.55422343884252 C85.2488114084273 28.93830928362491, 84.76718299281251 29.3223951284073, 83.85101989342061 30.053010820048367 C83.41516481756463 30.357044453103367, 82.97930974170863 30.661078086158366, 81.87943379539558 31.428303933444013 C81.25874950559368 31.804566397467685, 80.63806521579178 32.18082886149136, 79.82378320014766 32.674451404627106 C79.22353803968034 32.98759892036753, 78.62329287921303 33.30074643610796, 77.69251521690843 33.78633254634072 C76.87952128058052 34.14622084534482, 76.06652734425262 34.506109144348926, 75.49438768297654 34.75937840047581 C74.94499757278662 34.961559039532204, 74.39560746259671 35.163739678588605, 73.2384331758858 35.58959051290007 C72.52833898369735 35.80034274178112, 71.81824479150892 36.01109497066218, 70.93392189660656 36.2735573639636 C70.34527252877237 36.40791274087564, 69.75662316093816 36.542268117787685, 68.59032357630147 36.80846838716495 C67.90089357821535 36.919930082646026, 67.2114635801292 37.03139177812711, 66.217268563169 37.192125518371725 C65.28828499383029 37.28174344603963, 64.35930142449158 37.37136137370753, 63.82450824927673 37.42295222813761 C62.93560316135987 37.451457684158314, 62.04669807344302 37.47996314017902, 61.42187500000001 37.5 C61.42187500000001 37.5, 61.421875 37.5, 61.421875 37.5 C33.8688023153037 37.5, 6.3157296306074 37.5, -61.42187499999999 37.5 C-62.287794103132995 37.47223165977181, -63.153713206266 37.44446331954362, -63.82450824927672 37.42295222813761 C-64.54680194925419 37.35327342358605, -65.26909564923166 37.283594619034496, -66.21726856316899 37.192125518371725 C-66.72810482775637 37.109537472707636, -67.23894109234374 37.02694942704355, -68.59032357630146 36.80846838716495 C-69.27972094946273 36.65111793547918, -69.96911832262398 36.49376748379341, -70.93392189660652 36.273557363963604 C-71.3965080517136 36.1362642212921, -71.85909420682066 35.998971078620606, -73.23843317588576 35.58959051290008 C-74.13811891576113 35.25849784402214, -75.03780465563649 34.927405175144195, -75.49438768297654 34.75937840047582 C-76.24121492385221 34.428780134783125, -76.98804216472789 34.09818186909044, -77.69251521690842 33.786332546340724 C-78.29868599673074 33.47009363877834, -78.90485677655306 33.15385473121595, -79.82378320014766 32.67445140462711 C-80.39893429164951 32.32579143299571, -80.97408538315135 31.977131461364305, -81.87943379539556 31.428303933444038 C-82.35012066362873 31.099973149870706, -82.8208075318619 30.771642366297375, -83.8510198934206 30.053010820048378 C-84.41622218027086 29.60227703694982, -84.98142446712112 29.151543253851255, -85.73043982404207 28.55422343884255 C-86.29981064150724 28.037135927146988, -86.8691814589724 27.520048415451427, -87.50997064763072 26.938100628664802 C-88.11266067909385 26.315773689407308, -88.71535071055696 25.693446750149818, -89.18229989032433 25.21128338479938 C-89.75853307929192 24.53440709244074, -90.3347662682595 23.857530800082102, -90.74055559255112 23.380867569702513 C-91.1364238176893 22.850440212354577, -91.53229204282748 22.320012855006638, -92.17833454738584 21.454374754581377 C-92.65799791349156 20.71748301659444, -93.13766127959725 19.980591278607506, -93.48972861270047 19.43972131164471 C-93.78663652955784 18.91253124007772, -94.0835444464152 18.38534116851073, -94.66934898898751 17.345185884031327 C-94.99647472662521 16.665902290457133, -95.3236004642629 15.98661869688294, -95.71234836309296 15.179375367089781 C-95.97647776679703 14.526970633346096, -96.24060717050111 13.874565899602409, -96.614440826866 12.951189540799058 C-96.85140476474564 12.23749191498184, -97.08836870262529 11.52379428916462, -97.37191948887477 10.669784498663716 C-97.5175038072353 10.114608396112326, -97.66308812559582 9.559432293560935, -97.98167170681839 8.344535023361798 C-98.14089935939045 7.526934680180564, -98.3001270119625 6.70933433699933, -98.44119187804188 5.984996063751739 C-98.52181713220898 5.359682513688914, -98.60244238637608 4.734368963626089, -98.74859173559493 3.6008634715380943 C-98.78251295229663 3.0725131406958344, -98.81643416899833 2.5441628098535745, -98.9026081075258 1.2019341589370733 C-98.9026081075258 0.3193403727442431, -98.9026081075258 -0.5632534134485871, -98.9026081075258 -1.2019341589370551 C-98.86785386568653 -1.7432595287027088, -98.83309962384726 -2.2845848984683625, -98.74859173559494 -3.6008634715380428 C-98.66950911847498 -4.214212633291352, -98.59042650135501 -4.82756179504466, -98.44119187804188 -5.984996063751721 C-98.30515978183746 -6.683492127367719, -98.16912768563303 -7.381988190983717, -97.98167170681839 -8.34453502336178 C-97.7634765487609 -9.176607727414646, -97.54528139070344 -10.008680431467514, -97.37191948887478 -10.669784498663699 C-97.17924926705528 -11.250076508953013, -96.9865790452358 -11.83036851924233, -96.61444082686603 -12.95118954079901 C-96.25692618661073 -13.83425761430495, -95.89941154635542 -14.717325687810888, -95.71234836309297 -15.179375367089763 C-95.49697240290988 -15.626608156717262, -95.2815964427268 -16.073840946344763, -94.66934898898751 -17.34518588403131 C-94.21703360757249 -18.14831764563262, -93.76471822615748 -18.95144940723393, -93.48972861270047 -19.439721311644696 C-93.14384907386793 -19.97108516495233, -92.79796953503538 -20.502449018259966, -92.17833454738584 -21.454374754581362 C-91.66422968798095 -22.143228430267733, -91.15012482857604 -22.8320821059541, -90.74055559255112 -23.380867569702502 C-90.21619948099071 -23.99680609504935, -89.69184336943029 -24.6127446203962, -89.18229989032434 -25.211283384799366 C-88.68007978797938 -25.72986687350777, -88.17785968563442 -26.248450362216175, -87.50997064763075 -26.938100628664763 C-87.14787545421466 -27.266945902811447, -86.78578026079855 -27.59579117695813, -85.7304398240421 -28.554223438842516 C-85.25918051891342 -28.93004019394584, -84.78792121378477 -29.305856949049165, -83.85101989342061 -30.053010820048364 C-83.20181323845566 -30.505869278848778, -82.5526065834907 -30.95872773764919, -81.8794337953956 -31.42830393344401 C-81.32401896846001 -31.764999665512182, -80.76860414152443 -32.10169539758035, -79.82378320014767 -32.6744514046271 C-79.09910833850115 -33.05251381577169, -78.37443347685462 -33.43057622691629, -77.69251521690845 -33.78633254634072 C-76.9380422286476 -34.12031535759778, -76.18356924038675 -34.45429816885485, -75.49438768297655 -34.75937840047581 C-74.80527983056315 -35.0129764602071, -74.11617197814974 -35.266574519938395, -73.2384331758858 -35.58959051290007 C-72.66360658673052 -35.76019602723502, -72.08877999757523 -35.93080154156996, -70.93392189660656 -36.27355736396359 C-70.02657772335166 -36.480652750534944, -69.11923355009678 -36.6877481371063, -68.59032357630147 -36.80846838716494 C-67.74809583029081 -36.94463323756623, -66.90586808428014 -37.080798087967516, -66.217268563169 -37.192125518371725 C-65.65579577028673 -37.24629012343125, -65.09432297740445 -37.30045472849078, -63.82450824927674 -37.42295222813761 C-63.074301614775294 -37.447009894717446, -62.32409498027385 -37.471067561297275, -61.421875000000014 -37.5 C-61.42187500000001 -37.5, -61.42187500000001 -37.5, -61.421875 -37.5" stroke="none" stroke-width="0" fill="#FDECF3" style="fill:#FDECF3 !important;stroke:#B83280 !important;stroke-width:2.5px !important"/><path d="M-61.421875 -37.5 C-17.35460459088509 -37.5, 26.712665818229823 -37.5, 61.421875 -37.5 M-61.421875 -37.5 C-18.214139615116054 -37.5, 24.993595769767893 -37.5, 61.421875 -37.5 M61.421875 -37.5 C61.421875 -37.5, 61.421875 -37.5, 61.421875 -37.5 M61.421875 -37.5 C61.421875 -37.5, 61.421875 -37.5, 61.421875 -37.5 M61.421875 -37.5 C62.177957832462326 -37.47575389518889, 62.934040664924645 -37.451507790377775, 63.82450824927673 -37.42295222813761 M61.421875 -37.5 C62.313283059726324 -37.471414278545105, 63.20469111945265 -37.442828557090216, 63.82450824927673 -37.42295222813761 M63.82450824927673 -37.42295222813761 C64.732905267695 -37.33532026027805, 65.64130228611327 -37.2476882924185, 66.21726856316897 -37.19212551837173 M63.82450824927673 -37.42295222813761 C64.71118425408123 -37.33741566033803, 65.59786025888573 -37.25187909253846, 66.21726856316897 -37.19212551837173 M66.21726856316897 -37.19212551837173 C67.06724824322484 -37.05470739539117, 67.91722792328069 -36.917289272410606, 68.59032357630146 -36.80846838716496 M66.21726856316897 -37.19212551837173 C66.859165770287 -37.08834855591208, 67.50106297740503 -36.98457159345242, 68.59032357630146 -36.80846838716496 M68.59032357630146 -36.80846838716496 C69.36855587656687 -36.63084194306974, 70.14678817683229 -36.45321549897452, 70.93392189660652 -36.273557363963604 M68.59032357630146 -36.80846838716496 C69.11562210050424 -36.6885724269089, 69.64092062470702 -36.56867646665283, 70.93392189660652 -36.273557363963604 M70.93392189660652 -36.273557363963604 C71.6105153659967 -36.072747973760194, 72.28710883538687 -35.87193858355678, 73.23843317588577 -35.589590512900074 M70.93392189660652 -36.273557363963604 C71.65839843817682 -36.05853652928051, 72.38287497974713 -35.84351569459741, 73.23843317588577 -35.589590512900074 M73.23843317588577 -35.589590512900074 C73.93214506896467 -35.334298123644594, 74.62585696204357 -35.07900573438912, 75.49438768297652 -34.75937840047582 M73.23843317588577 -35.589590512900074 C74.08108501129536 -35.27948684808117, 74.92373684670493 -34.969383183262266, 75.49438768297652 -34.75937840047582 M75.49438768297652 -34.75937840047582 C76.29641481553462 -34.40434478018193, 77.09844194809271 -34.04931115988804, 77.69251521690842 -33.78633254634072 M75.49438768297652 -34.75937840047582 C76.11165271209236 -34.486133482602746, 76.7289177412082 -34.21288856472968, 77.69251521690842 -33.78633254634072 M77.69251521690842 -33.78633254634072 C78.16200332271585 -33.54140090226247, 78.63149142852326 -33.296469258184224, 79.82378320014766 -32.674451404627106 M77.69251521690842 -33.78633254634072 C78.1435755283286 -33.55101467079073, 78.59463583974879 -33.31569679524073, 79.82378320014766 -32.674451404627106 M79.82378320014766 -32.674451404627106 C80.63294718270674 -32.18393144322441, 81.44211116526583 -31.69341148182172, 81.87943379539557 -31.428303933444028 M79.82378320014766 -32.674451404627106 C80.29280199068748 -32.39012945754151, 80.76182078122731 -32.10580751045592, 81.87943379539557 -31.428303933444028 M81.87943379539557 -31.428303933444028 C82.28494380335253 -31.145437706138566, 82.69045381130951 -30.862571478833107, 83.8510198934206 -30.053010820048375 M81.87943379539557 -31.428303933444028 C82.31970199413809 -31.1211918969044, 82.7599701928806 -30.814079860364767, 83.8510198934206 -30.053010820048375 M83.8510198934206 -30.053010820048375 C84.47014991237307 -29.559271105675524, 85.08927993132554 -29.06553139130267, 85.73043982404207 -28.554223438842545 M83.8510198934206 -30.053010820048375 C84.40570376849767 -29.610665190432236, 84.96038764357475 -29.168319560816098, 85.73043982404207 -28.554223438842545 M85.73043982404207 -28.554223438842545 C86.27288962480554 -28.06158488222439, 86.81533942556902 -27.568946325606234, 87.50997064763074 -26.938100628664785 M85.73043982404207 -28.554223438842545 C86.41091260640763 -27.93623606222135, 87.09138538877319 -27.318248685600157, 87.50997064763074 -26.938100628664785 M87.50997064763074 -26.938100628664785 C88.17196273069678 -26.254539452338303, 88.8339548137628 -25.570978276011825, 89.18229989032433 -25.211283384799387 M87.50997064763074 -26.938100628664785 C87.97786212851159 -26.454964260050318, 88.44575360939244 -25.971827891435847, 89.18229989032433 -25.211283384799387 M89.18229989032433 -25.211283384799387 C89.73776620590169 -24.558801043593473, 90.29323252147906 -23.90631870238756, 90.74055559255112 -23.38086756970251 M89.18229989032433 -25.211283384799387 C89.65034786312397 -24.661487603264803, 90.11839583592361 -24.111691821730222, 90.74055559255112 -23.38086756970251 M90.74055559255112 -23.38086756970251 C91.16749504706517 -22.808807595638125, 91.59443450157923 -22.23674762157374, 92.17833454738584 -21.45437475458137 M90.74055559255112 -23.38086756970251 C91.1156813091049 -22.878233284176254, 91.4908070256587 -22.37559899865, 92.17833454738584 -21.45437475458137 M92.17833454738584 -21.45437475458137 C92.49910577995614 -20.961584002216828, 92.81987701252643 -20.468793249852286, 93.48972861270047 -19.439721311644693 M92.17833454738584 -21.45437475458137 C92.6417493011034 -20.74244524858598, 93.10516405482096 -20.030515742590588, 93.48972861270047 -19.439721311644693 M93.48972861270047 -19.439721311644693 C93.95070116383302 -18.621217868576434, 94.41167371496554 -17.802714425508178, 94.66934898898751 -17.345185884031324 M93.48972861270047 -19.439721311644693 C93.92357995348257 -18.669374323873996, 94.35743129426466 -17.899027336103302, 94.66934898898751 -17.345185884031324 M94.66934898898751 -17.345185884031324 C94.93328712636223 -16.79711269440126, 95.19722526373695 -16.249039504771194, 95.71234836309296 -15.179375367089778 M94.66934898898751 -17.345185884031324 C94.98894421379741 -16.681539561471197, 95.30853943860733 -16.017893238911068, 95.71234836309296 -15.179375367089778 M95.71234836309296 -15.179375367089778 C96.02587287387426 -14.40496376387591, 96.33939738465556 -13.630552160662042, 96.614440826866 -12.951189540799055 M95.71234836309296 -15.179375367089778 C96.0175704823572 -14.425470831438878, 96.32279260162143 -13.671566295787978, 96.614440826866 -12.951189540799055 M96.614440826866 -12.951189540799055 C96.88044938842424 -12.150014136094267, 97.14645794998246 -11.348838731389481, 97.37191948887477 -10.669784498663727 M96.614440826866 -12.951189540799055 C96.88095992770268 -12.148476473130964, 97.14747902853937 -11.345763405462874, 97.37191948887477 -10.669784498663727 M97.37191948887477 -10.669784498663727 C97.51200985192237 -10.135559228815781, 97.65210021496999 -9.601333958967835, 97.98167170681839 -8.344535023361795 M97.37191948887477 -10.669784498663727 C97.49787699144817 -10.189453951024431, 97.62383449402157 -9.709123403385135, 97.98167170681839 -8.344535023361795 M97.98167170681839 -8.344535023361795 C98.16146860762849 -7.4213159377903555, 98.3412655084386 -6.498096852218917, 98.44119187804188 -5.984996063751735 M97.98167170681839 -8.344535023361795 C98.08911389572641 -7.792842091233726, 98.19655608463445 -7.241149159105657, 98.44119187804188 -5.984996063751735 M98.44119187804188 -5.984996063751735 C98.56344480686302 -5.036826489386384, 98.68569773568416 -4.0886569150210335, 98.74859173559494 -3.600863471538073 M98.44119187804188 -5.984996063751735 C98.56095410438762 -5.0561438859407115, 98.68071633073338 -4.127291708129689, 98.74859173559494 -3.600863471538073 M98.74859173559494 -3.600863471538073 C98.79394635536563 -2.8944286590193373, 98.83930097513633 -2.187993846500602, 98.9026081075258 -1.2019341589370687 M98.74859173559494 -3.600863471538073 C98.80579059231837 -2.709945107984456, 98.8629894490418 -1.819026744430839, 98.9026081075258 -1.2019341589370687 M98.9026081075258 -1.2019341589370687 C98.9026081075258 -0.3181468667074461, 98.9026081075258 0.5656404255221765, 98.9026081075258 1.2019341589370596 M98.9026081075258 -1.2019341589370687 C98.9026081075258 -0.2863437990364246, 98.9026081075258 0.6292465608642195, 98.9026081075258 1.2019341589370596 M98.9026081075258 1.2019341589370596 C98.84520270716614 2.096069606343951, 98.78779730680648 2.9902050537508424, 98.74859173559494 3.600863471538047 M98.9026081075258 1.2019341589370596 C98.85822687024505 1.893207753474678, 98.8138456329643 2.5844813480122966, 98.74859173559494 3.600863471538047 M98.74859173559494 3.600863471538047 C98.66036406572562 4.285139856520432, 98.5721363958563 4.969416241502817, 98.44119187804188 5.984996063751709 M98.74859173559494 3.600863471538047 C98.65874544875939 4.297693530078507, 98.56889916192382 4.994523588618966, 98.44119187804188 5.984996063751709 M98.44119187804188 5.984996063751709 C98.34370876159346 6.485551263650398, 98.24622564514503 6.986106463549087, 97.98167170681839 8.344535023361786 M98.44119187804188 5.984996063751709 C98.32743062202088 6.56913606996952, 98.2136693659999 7.153276076187332, 97.98167170681839 8.344535023361786 M97.98167170681839 8.344535023361786 C97.82337080514628 8.948204969482289, 97.66506990347418 9.551874915602792, 97.37191948887477 10.669784498663702 M97.98167170681839 8.344535023361786 C97.85515505865706 8.826997835463082, 97.72863841049573 9.309460647564379, 97.37191948887477 10.669784498663702 M97.37191948887477 10.669784498663702 C97.16197634874322 11.302099786843133, 96.95203320861167 11.934415075022565, 96.61444082686602 12.951189540799028 M97.37191948887477 10.669784498663702 C97.08088583195666 11.546331503384984, 96.78985217503855 12.422878508106267, 96.61444082686602 12.951189540799028 M96.61444082686602 12.951189540799028 C96.28001664087252 13.777223745854762, 95.94559245487902 14.603257950910498, 95.71234836309297 15.179375367089767 M96.61444082686602 12.951189540799028 C96.31718791110096 13.68540998973287, 96.01993499533592 14.419630438666712, 95.71234836309297 15.179375367089767 M95.71234836309297 15.179375367089767 C95.43117975975395 15.763227987967614, 95.15001115641492 16.34708060884546, 94.66934898898751 17.345185884031313 M95.71234836309297 15.179375367089767 C95.32660669192742 15.980376200814588, 94.94086502076189 16.78137703453941, 94.66934898898751 17.345185884031313 M94.66934898898751 17.345185884031313 C94.3010838337293 17.99907795808293, 93.93281867847107 18.652970032134547, 93.48972861270047 19.439721311644686 M94.66934898898751 17.345185884031313 C94.26335625271138 18.066067098512086, 93.85736351643523 18.786948312992855, 93.48972861270047 19.439721311644686 M93.48972861270047 19.439721311644686 C92.99740292445264 20.196065776751503, 92.50507723620481 20.95241024185832, 92.17833454738584 21.454374754581348 M93.48972861270047 19.439721311644686 C93.1939297721269 19.894147763876063, 92.89813093155334 20.348574216107444, 92.17833454738584 21.454374754581348 M92.17833454738584 21.454374754581348 C91.6094932272902 22.216570300999173, 91.04065190719454 22.978765847416994, 90.74055559255112 23.380867569702502 M92.17833454738584 21.454374754581348 C91.6618242116 22.146451549474772, 91.14531387581417 22.8385283443682, 90.74055559255112 23.380867569702502 M90.74055559255112 23.380867569702502 C90.17624733258987 24.043736161902626, 89.6119390726286 24.706604754102745, 89.18229989032434 25.211283384799366 M90.74055559255112 23.380867569702502 C90.17332044324296 24.047174252674225, 89.6060852939348 24.713480935645947, 89.18229989032434 25.211283384799366 M89.18229989032434 25.211283384799366 C88.56487001395433 25.84883042408699, 87.94744013758434 26.486377463374613, 87.50997064763075 26.938100628664778 M89.18229989032434 25.211283384799366 C88.61282418674642 25.79931380356835, 88.04334848316851 26.387344222337333, 87.50997064763075 26.938100628664778 M87.50997064763075 26.938100628664778 C87.11021609849665 27.301147133262592, 86.71046154936256 27.664193637860407, 85.7304398240421 28.55422343884252 M87.50997064763075 26.938100628664778 C87.00491826980893 27.39677583524891, 86.4998658919871 27.855451041833046, 85.7304398240421 28.55422343884252 M85.7304398240421 28.55422343884252 C85.16049414422658 29.008739951603886, 84.59054846441106 29.463256464365255, 83.85101989342061 30.053010820048367 M85.7304398240421 28.55422343884252 C85.15112652077869 29.016210382020653, 84.57181321751527 29.47819732519879, 83.85101989342061 30.053010820048367 M83.85101989342061 30.053010820048367 C83.0955144954977 30.580018680337833, 82.34000909757478 31.1070265406273, 81.87943379539558 31.428303933444013 M83.85101989342061 30.053010820048367 C83.09667562511035 30.57920872658454, 82.34233135680007 31.105406633120708, 81.87943379539558 31.428303933444013 M81.87943379539558 31.428303933444013 C81.40134338220906 31.718125151488806, 80.92325296902256 32.0079463695336, 79.82378320014766 32.674451404627106 M81.87943379539558 31.428303933444013 C81.19364249147107 31.844034652040097, 80.50785118754656 32.25976537063618, 79.82378320014766 32.674451404627106 M79.82378320014766 32.674451404627106 C79.13270088242875 33.03498860712171, 78.44161856470984 33.395525809616316, 77.69251521690843 33.78633254634072 M79.82378320014766 32.674451404627106 C79.06938569690638 33.068020098853424, 78.31498819366509 33.461588793079734, 77.69251521690843 33.78633254634072 M77.69251521690843 33.78633254634072 C77.16798109766277 34.01852824117896, 76.6434469784171 34.25072393601721, 75.49438768297654 34.75937840047581 M77.69251521690843 33.78633254634072 C77.11193044544252 34.043340202233345, 76.5313456739766 34.300347858125974, 75.49438768297654 34.75937840047581 M75.49438768297654 34.75937840047581 C74.7127457772892 35.047029847187325, 73.93110387160185 35.33468129389884, 73.2384331758858 35.58959051290007 M75.49438768297654 34.75937840047581 C74.92643594071765 34.96838989171544, 74.35848419845875 35.17740138295506, 73.2384331758858 35.58959051290007 M73.2384331758858 35.58959051290007 C72.75969754543617 35.731676735082914, 72.28096191498653 35.87376295726577, 70.93392189660656 36.2735573639636 M73.2384331758858 35.58959051290007 C72.68571096411092 35.75363556405676, 72.13298875233603 35.91768061521345, 70.93392189660656 36.2735573639636 M70.93392189660656 36.2735573639636 C70.089260672141 36.46634577651826, 69.24459944767543 36.659134189072915, 68.59032357630147 36.80846838716495 M70.93392189660656 36.2735573639636 C70.08705772834436 36.46684858406429, 69.24019356008216 36.66013980416498, 68.59032357630147 36.80846838716495 M68.59032357630147 36.80846838716495 C67.81334176021832 36.9340847816053, 67.03635994413517 37.05970117604564, 66.217268563169 37.192125518371725 M68.59032357630147 36.80846838716495 C67.87149915084669 36.924682345705804, 67.1526747253919 37.04089630424666, 66.217268563169 37.192125518371725 M66.217268563169 37.192125518371725 C65.37961422801925 37.27293302465689, 64.5419598928695 37.35374053094206, 63.82450824927673 37.42295222813761 M66.217268563169 37.192125518371725 C65.46706670047953 37.264496589815636, 64.71686483779007 37.33686766125955, 63.82450824927673 37.42295222813761 M63.82450824927673 37.42295222813761 C63.050427511102974 37.44777549075409, 62.27634677292922 37.47259875337057, 61.42187500000001 37.5 M63.82450824927673 37.42295222813761 C63.04694354674021 37.44788721471008, 62.269378844203686 37.47282220128255, 61.42187500000001 37.5 M61.42187500000001 37.5 C61.42187500000001 37.5, 61.42187500000001 37.5, 61.421875 37.5 M61.42187500000001 37.5 C61.42187500000001 37.5, 61.421875 37.5, 61.421875 37.5 M61.421875 37.5 C31.66146312611932 37.5, 1.9010512522386378 37.5, -61.42187499999999 37.5 M61.421875 37.5 C31.182596494642787 37.5, 0.9433179892855748 37.5, -61.42187499999999 37.5 M-61.42187499999999 37.5 C-62.23146160470726 37.47403813335177, -63.04104820941453 37.44807626670354, -63.82450824927672 37.42295222813761 M-61.42187499999999 37.5 C-61.91159464070001 37.484295644304204, -62.40131428140002 37.46859128860841, -63.82450824927672 37.42295222813761 M-63.82450824927672 37.42295222813761 C-64.75763377216376 37.33293473119233, -65.69075929505078 37.24291723424705, -66.21726856316899 37.192125518371725 M-63.82450824927672 37.42295222813761 C-64.69984055883667 37.33850997297549, -65.57517286839663 37.254067717813356, -66.21726856316899 37.192125518371725 M-66.21726856316899 37.192125518371725 C-67.1470148276736 37.041811352616584, -68.07676109217822 36.89149718686145, -68.59032357630146 36.80846838716495 M-66.21726856316899 37.192125518371725 C-66.9627529719262 37.071601380481795, -67.7082373806834 36.951077242591865, -68.59032357630146 36.80846838716495 M-68.59032357630146 36.80846838716495 C-69.2630365924536 36.65492603109091, -69.93574960860576 36.50138367501686, -70.93392189660652 36.273557363963604 M-68.59032357630146 36.80846838716495 C-69.39546576287438 36.62469993712347, -70.20060794944732 36.440931487081976, -70.93392189660652 36.273557363963604 M-70.93392189660652 36.273557363963604 C-71.7743017469913 36.02413703561326, -72.61468159737606 35.77471670726291, -73.23843317588576 35.58959051290008 M-70.93392189660652 36.273557363963604 C-71.71849410584734 36.04070045056449, -72.50306631508818 35.80784353716538, -73.23843317588576 35.58959051290008 M-73.23843317588576 35.58959051290008 C-73.83945959049939 35.36840723649499, -74.44048600511303 35.1472239600899, -75.49438768297654 34.75937840047582 M-73.23843317588576 35.58959051290008 C-74.12353692986183 35.26386414962747, -75.00864068383791 34.93813778635487, -75.49438768297654 34.75937840047582 M-75.49438768297654 34.75937840047582 C-76.11306862144258 34.485506701534874, -76.73174955990862 34.21163500259393, -77.69251521690842 33.786332546340724 M-75.49438768297654 34.75937840047582 C-76.2940903586509 34.405373748291794, -77.09379303432527 34.05136909610776, -77.69251521690842 33.786332546340724 M-77.69251521690842 33.786332546340724 C-78.19403787858957 33.52468849498227, -78.6955605402707 33.26304444362381, -79.82378320014766 32.67445140462711 M-77.69251521690842 33.786332546340724 C-78.12941334748777 33.55840307146409, -78.5663114780671 33.33047359658745, -79.82378320014766 32.67445140462711 M-79.82378320014766 32.67445140462711 C-80.49765339283721 32.26594733371789, -81.17152358552676 31.857443262808665, -81.87943379539556 31.428303933444038 M-79.82378320014766 32.67445140462711 C-80.24476154833299 32.419251856013794, -80.6657398965183 32.16405230740047, -81.87943379539556 31.428303933444038 M-81.87943379539556 31.428303933444038 C-82.578954705182 30.940348428549143, -83.27847561496844 30.45239292365425, -83.8510198934206 30.053010820048378 M-81.87943379539556 31.428303933444038 C-82.43600646284797 31.040062934271685, -82.99257913030038 30.651821935099335, -83.8510198934206 30.053010820048378 M-83.8510198934206 30.053010820048378 C-84.45928311389792 29.567937088281802, -85.06754633437525 29.08286335651523, -85.73043982404207 28.55422343884255 M-83.8510198934206 30.053010820048378 C-84.46602271948566 29.562562432174023, -85.08102554555072 29.072114044299664, -85.73043982404207 28.55422343884255 M-85.73043982404207 28.55422343884255 C-86.23995570750586 28.091494594532275, -86.74947159096963 27.628765750222, -87.50997064763072 26.938100628664802 M-85.73043982404207 28.55422343884255 C-86.22163938269927 28.10812899609822, -86.71283894135647 27.66203455335389, -87.50997064763072 26.938100628664802 M-87.50997064763072 26.938100628664802 C-88.09421941435956 26.334815809301446, -88.6784681810884 25.731530989938094, -89.18229989032433 25.21128338479938 M-87.50997064763072 26.938100628664802 C-87.96282614870802 26.470490143674393, -88.41568164978533 26.002879658683987, -89.18229989032433 25.21128338479938 M-89.18229989032433 25.21128338479938 C-89.63610398144976 24.678219277179146, -90.08990807257521 24.145155169558915, -90.74055559255112 23.380867569702513 M-89.18229989032433 25.21128338479938 C-89.59521268680723 24.726252518646852, -90.00812548329013 24.24122165249433, -90.74055559255112 23.380867569702513 M-90.74055559255112 23.380867569702513 C-91.24533312113746 22.704511667575687, -91.75011064972382 22.02815576544886, -92.17833454738584 21.454374754581377 M-90.74055559255112 23.380867569702513 C-91.12716100144293 22.86285154226479, -91.51376641033475 22.344835514827064, -92.17833454738584 21.454374754581377 M-92.17833454738584 21.454374754581377 C-92.4851510306695 20.983022244495995, -92.79196751395314 20.511669734410614, -93.48972861270047 19.43972131164471 M-92.17833454738584 21.454374754581377 C-92.50678700509093 20.949783577712058, -92.83523946279601 20.445192400842735, -93.48972861270047 19.43972131164471 M-93.48972861270047 19.43972131164471 C-93.73365541417765 19.006604575354935, -93.97758221565482 18.573487839065162, -94.66934898898751 17.345185884031327 M-93.48972861270047 19.43972131164471 C-93.7880053515184 18.910100758078514, -94.0862820903363 18.380480204512317, -94.66934898898751 17.345185884031327 M-94.66934898898751 17.345185884031327 C-94.97513597230461 16.710212670380045, -95.28092295562172 16.07523945672876, -95.71234836309296 15.179375367089781 M-94.66934898898751 17.345185884031327 C-94.91179875775316 16.84173375159544, -95.1542485265188 16.338281619159556, -95.71234836309296 15.179375367089781 M-95.71234836309296 15.179375367089781 C-95.93082513229969 14.63973352318819, -96.1493019015064 14.100091679286598, -96.614440826866 12.951189540799058 M-95.71234836309296 15.179375367089781 C-95.89972445590324 14.716552795178089, -96.08710054871351 14.253730223266395, -96.614440826866 12.951189540799058 M-96.614440826866 12.951189540799058 C-96.822139990804 12.32563275138553, -97.029839154742 11.700075961972, -97.37191948887477 10.669784498663716 M-96.614440826866 12.951189540799058 C-96.88190538395223 12.145628909545334, -97.14936994103844 11.34006827829161, -97.37191948887477 10.669784498663716 M-97.37191948887477 10.669784498663716 C-97.58843070448216 9.844133396998313, -97.80494192008956 9.018482295332909, -97.98167170681839 8.344535023361798 M-97.37191948887477 10.669784498663716 C-97.49965267598874 10.182682496284635, -97.62738586310273 9.695580493905554, -97.98167170681839 8.344535023361798 M-97.98167170681839 8.344535023361798 C-98.07675220357545 7.856316767784384, -98.17183270033252 7.368098512206971, -98.44119187804188 5.984996063751739 M-97.98167170681839 8.344535023361798 C-98.10341292323292 7.719419607088384, -98.22515413964744 7.094304190814969, -98.44119187804188 5.984996063751739 M-98.44119187804188 5.984996063751739 C-98.56042220270953 5.060269210320122, -98.67965252737717 4.135542356888505, -98.74859173559493 3.6008634715380943 M-98.44119187804188 5.984996063751739 C-98.5475385346231 5.1601923958303715, -98.65388519120434 4.335388727909004, -98.74859173559493 3.6008634715380943 M-98.74859173559493 3.6008634715380943 C-98.80740797772685 2.6847530247172484, -98.86622421985878 1.768642577896403, -98.9026081075258 1.2019341589370733 M-98.74859173559493 3.6008634715380943 C-98.7922881039858 2.9202572627765253, -98.83598447237668 2.2396510540149563, -98.9026081075258 1.2019341589370733 M-98.9026081075258 1.2019341589370733 C-98.9026081075258 0.5631096557566853, -98.9026081075258 -0.07571484742370282, -98.9026081075258 -1.2019341589370551 M-98.9026081075258 1.2019341589370733 C-98.9026081075258 0.35650347502100754, -98.9026081075258 -0.48892720889505825, -98.9026081075258 -1.2019341589370551 M-98.9026081075258 -1.2019341589370551 C-98.84654977197711 -2.07508798458181, -98.79049143642844 -2.9482418102265653, -98.74859173559494 -3.6008634715380428 M-98.9026081075258 -1.2019341589370551 C-98.86616254918995 -1.7696031483431034, -98.8297169908541 -2.3372721377491517, -98.74859173559494 -3.6008634715380428 M-98.74859173559494 -3.6008634715380428 C-98.66626858148454 -4.239345598272777, -98.58394542737415 -4.877827725007513, -98.44119187804188 -5.984996063751721 M-98.74859173559494 -3.6008634715380428 C-98.66796272056949 -4.226206190075487, -98.58733370554404 -4.851548908612932, -98.44119187804188 -5.984996063751721 M-98.44119187804188 -5.984996063751721 C-98.27085793634139 -6.859624854292399, -98.10052399464091 -7.7342536448330765, -97.98167170681839 -8.34453502336178 M-98.44119187804188 -5.984996063751721 C-98.34072063236964 -6.500894675673381, -98.2402493866974 -7.016793287595041, -97.98167170681839 -8.34453502336178 M-97.98167170681839 -8.34453502336178 C-97.75857246870692 -9.195309110102253, -97.53547323059546 -10.046083196842726, -97.37191948887478 -10.669784498663699 M-97.98167170681839 -8.34453502336178 C-97.75696670917573 -9.201432567135276, -97.53226171153307 -10.058330110908773, -97.37191948887478 -10.669784498663699 M-97.37191948887478 -10.669784498663699 C-97.12393535650386 -11.4166731944591, -96.87595122413295 -12.163561890254503, -96.61444082686603 -12.95118954079901 M-97.37191948887478 -10.669784498663699 C-97.21140864763079 -11.15321757856104, -97.05089780638681 -11.636650658458382, -96.61444082686603 -12.95118954079901 M-96.61444082686603 -12.95118954079901 C-96.2685885933629 -13.805451244149767, -95.92273635985978 -14.659712947500525, -95.71234836309297 -15.179375367089763 M-96.61444082686603 -12.95118954079901 C-96.2723846872688 -13.79607481880975, -95.93032854767155 -14.64096009682049, -95.71234836309297 -15.179375367089763 M-95.71234836309297 -15.179375367089763 C-95.4247688510669 -15.776540377027725, -95.13718933904083 -16.37370538696569, -94.66934898898751 -17.34518588403131 M-95.71234836309297 -15.179375367089763 C-95.43714013356613 -15.750851144215044, -95.16193190403928 -16.322326921340327, -94.66934898898751 -17.34518588403131 M-94.66934898898751 -17.34518588403131 C-94.21514244403679 -18.151675597991346, -93.76093589908606 -18.958165311951383, -93.48972861270047 -19.439721311644696 M-94.66934898898751 -17.34518588403131 C-94.37188362320956 -17.87336576260464, -94.07441825743159 -18.401545641177968, -93.48972861270047 -19.439721311644696 M-93.48972861270047 -19.439721311644696 C-93.07704326612132 -20.0737168255223, -92.66435791954218 -20.707712339399905, -92.17833454738584 -21.454374754581362 M-93.48972861270047 -19.439721311644696 C-93.06142918591007 -20.0977042456944, -92.63312975911967 -20.755687179744104, -92.17833454738584 -21.454374754581362 M-92.17833454738584 -21.454374754581362 C-91.82403540297614 -21.929103330774304, -91.46973625856644 -22.40383190696724, -90.74055559255112 -23.380867569702502 M-92.17833454738584 -21.454374754581362 C-91.83177155661579 -21.91873758967526, -91.48520856584574 -22.38310042476916, -90.74055559255112 -23.380867569702502 M-90.74055559255112 -23.380867569702502 C-90.3816055692348 -23.802510691924795, -90.02265554591847 -24.22415381414709, -89.18229989032434 -25.211283384799366 M-90.74055559255112 -23.380867569702502 C-90.1211094521385 -24.108504253715076, -89.50166331172588 -24.83614093772765, -89.18229989032434 -25.211283384799366 M-89.18229989032434 -25.211283384799366 C-88.75843586354041 -25.648957792337555, -88.3345718367565 -26.086632199875744, -87.50997064763075 -26.938100628664763 M-89.18229989032434 -25.211283384799366 C-88.67575953219729 -25.734327892302378, -88.16921917407022 -26.257372399805394, -87.50997064763075 -26.938100628664763 M-87.50997064763075 -26.938100628664763 C-87.1016987031561 -27.308882406352932, -86.69342675868147 -27.6796641840411, -85.7304398240421 -28.554223438842516 M-87.50997064763075 -26.938100628664763 C-86.90539473518237 -27.48716047614831, -86.30081882273399 -28.036220323631856, -85.7304398240421 -28.554223438842516 M-85.7304398240421 -28.554223438842516 C-85.10916549346949 -29.049673184669892, -84.4878911628969 -29.54512293049727, -83.85101989342061 -30.053010820048364 M-85.7304398240421 -28.554223438842516 C-85.07142204692403 -29.07977257889461, -84.41240426980596 -29.6053217189467, -83.85101989342061 -30.053010820048364 M-83.85101989342061 -30.053010820048364 C-83.29174522112189 -30.443136620833595, -82.73247054882317 -30.83326242161883, -81.8794337953956 -31.42830393344401 M-83.85101989342061 -30.053010820048364 C-83.34223911254378 -30.407914268023013, -82.83345833166695 -30.762817715997667, -81.8794337953956 -31.42830393344401 M-81.8794337953956 -31.42830393344401 C-81.31452457402503 -31.77075522321392, -80.74961535265446 -32.11320651298384, -79.82378320014767 -32.6744514046271 M-81.8794337953956 -31.42830393344401 C-81.08271673671165 -31.91127849644736, -80.2859996780277 -32.394253059450705, -79.82378320014767 -32.6744514046271 M-79.82378320014767 -32.6744514046271 C-78.98627134769154 -33.11138080160152, -78.14875949523542 -33.54831019857594, -77.69251521690845 -33.78633254634072 M-79.82378320014767 -32.6744514046271 C-78.9714424825967 -33.11911701102316, -78.11910176504574 -33.563782617419214, -77.69251521690845 -33.78633254634072 M-77.69251521690845 -33.78633254634072 C-77.02884986344566 -34.08011751138546, -76.36518450998285 -34.37390247643021, -75.49438768297655 -34.75937840047581 M-77.69251521690845 -33.78633254634072 C-77.15832088057638 -34.02280453272295, -76.62412654424432 -34.25927651910519, -75.49438768297655 -34.75937840047581 M-75.49438768297655 -34.75937840047581 C-74.93382727944825 -34.96566981073779, -74.37326687591995 -35.17196122099977, -73.2384331758858 -35.58959051290007 M-75.49438768297655 -34.75937840047581 C-74.72755272711626 -35.04158075277702, -73.96071777125599 -35.32378310507823, -73.2384331758858 -35.58959051290007 M-73.2384331758858 -35.58959051290007 C-72.77275098590178 -35.72780254247163, -72.30706879591774 -35.86601457204319, -70.93392189660656 -36.27355736396359 M-73.2384331758858 -35.58959051290007 C-72.38969705708355 -35.84149093785378, -71.5409609382813 -36.09339136280748, -70.93392189660656 -36.27355736396359 M-70.93392189660656 -36.27355736396359 C-70.31267860160455 -36.41535209205644, -69.69143530660253 -36.55714682014928, -68.59032357630147 -36.80846838716494 M-70.93392189660656 -36.27355736396359 C-70.12474265879307 -36.45824724460652, -69.31556342097956 -36.642937125249446, -68.59032357630147 -36.80846838716494 M-68.59032357630147 -36.80846838716494 C-67.77012717523574 -36.94107138057117, -66.94993077417001 -37.07367437397738, -66.217268563169 -37.192125518371725 M-68.59032357630147 -36.80846838716494 C-67.83128901556312 -36.93118320854419, -67.07225445482474 -37.05389802992344, -66.217268563169 -37.192125518371725 M-66.217268563169 -37.192125518371725 C-65.6801965245717 -37.243936212011576, -65.1431244859744 -37.295746905651434, -63.82450824927674 -37.42295222813761 M-66.217268563169 -37.192125518371725 C-65.43224658445138 -37.26785564453155, -64.64722460573375 -37.343585770691384, -63.82450824927674 -37.42295222813761 M-63.82450824927674 -37.42295222813761 C-63.15004705521296 -37.44458088587216, -62.47558586114917 -37.466209543606716, -61.421875000000014 -37.5 M-63.82450824927674 -37.42295222813761 C-63.18912398525964 -37.44332776478419, -62.55373972124255 -37.46370330143078, -61.421875000000014 -37.5 M-61.421875000000014 -37.5 C-61.42187500000001 -37.5, -61.421875 -37.5, -61.421875 -37.5 M-61.421875000000014 -37.5 C-61.42187500000001 -37.5, -61.421875 -37.5, -61.421875 -37.5" stroke="#B83280" stroke-width="2.5" fill="none" stroke-dasharray="0 0" style="fill:#FDECF3 !important;stroke:#B83280 !important;stroke-width:2.5px !important"/></g><g class="label" style="color:#702459 !important" transform="translate(-82.046875, -30)"><rect/><foreignObject width="164.09375" height="60"><div style="color: rgb(112, 36, 89) !important; display: table-cell; white-space: nowrap; line-height: 1.5; max-width: 200px; text-align: center;" xmlns="http://www.w3.org/1999/xhtml"><span style="color:#702459 !important" class="nodeLabel"><p>Attribute</p></span></div></foreignObject></g></g></g></g></g><defs><filter id="my-svg-drop-shadow" height="130%" width="130%"><feDropShadow dx="4" dy="4" stdDeviation="0" flood-opacity="0.06" flood-color="#000000"/></filter></defs><defs><filter id="my-svg-drop-shadow-small" height="150%" width="150%"><feDropShadow dx="2" dy="2" stdDeviation="0" flood-opacity="0.06" flood-color="#000000"/></filter></defs><linearGradient id="my-svg-gradient" gradientUnits="objectBoundingBox" x1="0%" y1="0%" x2="100%" y2="0%"><stop offset="0%" stop-color="hsl(0, 0%, 83.3333333333%)" stop-opacity="1"/><stop offset="100%" stop-color="hsl(0, 0%, 88.9215686275%)" stop-opacity="1"/></linearGradient></svg>